<svg xmlns="http://www.w3.org/2000/svg" xmlns:xlink="http://www.w3.org/1999/xlink" width="631" height="651" viewBox="0 0 631 651">
  <defs>
    <clipPath id="clip-_Log1">
      <rect width="631" height="651"/>
    </clipPath>
  </defs>
  <g id="_Log1" data-name=" Log1" clip-path="url(#clip-_Log1)">
    <path id="Path_21" data-name="Path 21" d="M3314.852,450.762l63.574-73.016s-208.982-199.13-175.349-239.374,333.3,44.8,333.3,44.8l65.566-73.016s-207.974-92.882-319.191-90.785S3127.785,73.233,3102.5,110.156,3053.15,230.6,3108.41,317.4,3314.852,450.762,3314.852,450.762Z" transform="translate(-3065 -6.359)" fill="none" stroke="#fff" stroke-width="25"/>
    <path id="Path_24" data-name="Path 24" d="M3322.959,445.379l63.574-73.016s-217.089-193.747-183.456-233.991,330.375,58.434,330.375,58.434l65.566-73.016S3393.973,17.274,3282.756,19.372,3127.785,73.233,3102.5,110.156,3053.15,230.6,3108.41,317.4,3322.959,445.379,3322.959,445.379Z" transform="matrix(-0.995, 0.105, -0.105, -0.995, 3699.058, 294.035)" fill="none" stroke="#fff" stroke-width="25"/>
  </g>
</svg>
