<svg xmlns="http://www.w3.org/2000/svg" xmlns:xlink="http://www.w3.org/1999/xlink" width="408" height="423" viewBox="0 0 408 423">
  <defs>
    <clipPath id="clip-Log99">
      <rect width="408" height="423"/>
    </clipPath>
  </defs>
  <g id="Log99" clip-path="url(#clip-Log99)">
    <g id="Path_48" data-name="Path 48" transform="translate(3)" fill="none">
      <path d="M77.047,0H203.852C246.4,0,280.9,50.2,280.9,112.133V307.2c0,61.93-34.495,112.133-77.047,112.133H77.047C34.495,419.332,0,369.128,0,307.2V112.133C0,50.2,34.495,0,77.047,0Z" stroke="none"/>
      <path d="M 77.04653930664062 22 C 47.20823669433594 22 22 63.2760009765625 22 112.1332397460938 L 22 307.1983947753906 C 22 356.0556945800781 47.20823669433594 397.3316955566406 77.04653930664062 397.3316955566406 L 203.8523864746094 397.3316955566406 C 233.6906890869141 397.3316955566406 258.89892578125 356.0556945800781 258.89892578125 307.1983947753906 L 258.89892578125 112.1332397460938 C 258.89892578125 63.2760009765625 233.6906890869141 22 203.8523864746094 22 L 77.04653930664062 22 M 77.04653930664062 0 L 203.8523864746094 0 C 246.4040069580078 0 280.89892578125 50.20376586914062 280.89892578125 112.1332397460938 L 280.89892578125 307.1983947753906 C 280.89892578125 369.1279296875 246.4040069580078 419.3316955566406 203.8523864746094 419.3316955566406 L 77.04653930664062 419.3316955566406 C 34.49491882324219 419.3316955566406 0 369.1279296875 0 307.1983947753906 L 0 112.1332397460938 C 0 50.20376586914062 34.49491882324219 0 77.04653930664062 0 Z" stroke="none" fill="#fff"/>
    </g>
    <g id="Screenshot_2025-01-14_003545" data-name="Screenshot 2025-01-14 003545" transform="translate(44.752 95.684)">
      <path id="Path_39" data-name="Path 39" d="M152,43.491h29.71V77H176.9c-21.325,0-42.651-.068-63.975.059a59.246,59.246,0,0,0-12.372,1.315c-12.227,2.707-20.675,9.427-22.94,22.491A33.408,33.408,0,0,0,92.28,134.993c15.366,10.054,31.986,17.481,49.083,24.091a166.715,166.715,0,0,1,25.377,12.553c21.589,12.929,30.069,33.068,30.825,57.469,1.281,41.33-23.813,67.286-64.244,76.645-8.018,1.857-16.5,2.19-24.786,2.317-20.487.315-40.983.106-61.475.1-.8,0-1.6-.13-2.645-.22V275h4.92c18.66,0,37.319.04,55.978-.015a73.245,73.245,0,0,0,34.924-8.833c24.958-13.4,27.3-46.638,4.414-63.411-12.32-9.03-26.29-14.765-40.551-19.871-17.053-6.106-33.034-13.975-45.882-27.218C36.9,133.673,32.63,94.478,49.268,70.276c9.514-13.838,23.914-20.319,39.519-24.117A110.463,110.463,0,0,1,111.519,43.6C124.836,43.206,138.172,43.491,152,43.491Z" transform="translate(-15 -71)" fill="#fff"/>
    </g>
  </g>
</svg>
