<svg xmlns="http://www.w3.org/2000/svg" xmlns:xlink="http://www.w3.org/1999/xlink" width="408" height="423" viewBox="0 0 408 423">
  <defs>
    <clipPath id="clip-Log993">
      <rect width="408" height="423"/>
    </clipPath>
  </defs>
  <g id="Log993" clip-path="url(#clip-Log993)">
    <g id="Path_48" data-name="Path 48" transform="matrix(0.996, -0.087, 0.087, 0.996, 11.157, 36.403)" fill="none">
      <path d="M97.014,0H256.682C310.261,0,353.7,45.791,353.7,102.278V280.2c0,56.486-43.434,102.278-97.014,102.278H97.014C43.434,382.476,0,336.685,0,280.2V102.278C0,45.791,43.434,0,97.014,0Z" stroke="none"/>
      <path d="M 97.01351928710938 25 C 57.30514526367188 25 25 59.66656494140625 25 102.2776184082031 L 25 280.1981201171875 C 25 322.8092041015625 57.30514526367188 357.475830078125 97.01351928710938 357.475830078125 L 256.6817321777344 357.475830078125 C 296.3901672363281 357.475830078125 328.6953125 322.8092041015625 328.6953125 280.1981201171875 L 328.6953125 102.2776184082031 C 328.6953125 59.66656494140625 296.3901672363281 25 256.6817321777344 25 L 97.01351928710938 25 M 97.01351928710938 0 L 256.6817321777344 0 C 310.2608642578125 0 353.6953125 45.791259765625 353.6953125 102.2776184082031 L 353.6953125 280.1981201171875 C 353.6953125 336.6845703125 310.2608642578125 382.475830078125 256.6817321777344 382.475830078125 L 97.01351928710938 382.475830078125 C 43.4344482421875 382.475830078125 0 336.6845703125 0 280.1981201171875 L 0 102.2776184082031 C 0 45.791259765625 43.4344482421875 0 97.01351928710938 0 Z" stroke="none" fill="#fff"/>
    </g>
    <g id="Screenshot_2025-01-14_003545" data-name="Screenshot 2025-01-14 003545" transform="matrix(0.996, -0.087, 0.087, 0.996, 34.017, 108.368)">
      <path id="Path_39" data-name="Path 39" d="M139.444,43.472c9.012,0,188.008,1.11,196.833,1.11V71.652H332c-18.954,0-227.288-1.063-227.288-1.063l-4.027.147s-4.592.438-6.969.916c-7.335,1.476-7.247,8.582-6.928,10.915.122.668,2.69.446,0,0-8.277-1.373-25.729,0-25.729,0V65.557s8.48-16.9,22.2-19.93a107.628,107.628,0,0,1,20.2-2.066C115.3,43.242,127.154,43.472,139.444,43.472Z" transform="translate(-15 -71)" fill="#fff"/>
    </g>
    <g id="Screenshot_2025-01-14_003545-2" data-name="Screenshot 2025-01-14 003545" transform="matrix(0.996, -0.087, 0.087, 0.996, 138.362, 209.265)">
      <path id="Path_39-2" data-name="Path 39" d="M111.26,43.452h18.991V63.982h-3.073c-13.631,0-27.263-.042-40.894.036a39.455,39.455,0,0,0-7.908.806C70.561,66.482,65.161,70.6,63.713,78.6a20.12,20.12,0,0,0,9.374,20.9c9.822,6.159,20.446,10.709,31.375,14.758a108.524,108.524,0,0,1,16.221,7.69c13.8,7.92,19.221,20.257,19.7,35.2.819,25.318-15.222,41.218-41.066,46.951a78.972,78.972,0,0,1-15.844,1.419c-13.1.193-26.2.065-39.3.058-.513,0-1.026-.08-1.69-.135V185.269h3.145c11.927,0,23.855.024,35.782-.009a48.441,48.441,0,0,0,22.324-5.411c15.954-8.209,17.45-28.57,2.821-38.844-7.875-5.532-16.8-9.045-25.921-12.173-10.9-3.74-21.116-8.561-29.328-16.673C37.686,98.7,34.957,74.686,45.592,59.861c6.081-8.477,15.286-12.447,25.261-14.774A73.551,73.551,0,0,1,85.384,43.52C93.9,43.278,102.421,43.452,111.26,43.452Z" transform="translate(-15 -71)" fill="#fff"/>
    </g>
  </g>
</svg>
