<svg xmlns="http://www.w3.org/2000/svg" xmlns:xlink="http://www.w3.org/1999/xlink" width="642" height="748" viewBox="0 0 642 748">
  <defs>
    <clipPath id="clip-Log9">
      <rect width="642" height="748"/>
    </clipPath>
  </defs>
  <g id="Log9" clip-path="url(#clip-Log9)">
    <rect width="642" height="748"/>
    <g id="a_simple_geometric_design_representing_the_letter_S_using_only_black_color" data-name="a simple, geometric design representing the letter S using only black color" transform="translate(-184.563 -176.716)">
      <path id="Path_19" data-name="Path 19" d="M498.709,474.269c38.776,16.455,131.254,60.465,140.195,66.786a5.491,5.491,0,0,1-.757,1.615c-8.97,9.386-18.018,18.7-26.925,28.143-1.857,1.971-3.3,2.544-5.981,1.289q-76.4-35.808-152.9-71.419c-6.634-3.1-13.232-6.272-19.832-9.44a12.381,12.381,0,0,1-4.969-3.546c3.189-5.859,8.261-10.01,12.517-14.811,4.637-5.231,9.639-10.14,14.247-15.395,1.927-2.2,3.589-2.3,6.065-1.126C473.006,462.35,485.7,468.2,498.709,474.269Z" transform="translate(-6.183 26.522)" fill="#fff"/>
      <path id="Path_27" data-name="Path 27" d="M471.385,845.2c-21.874-4.787-41.78-13.671-61.655-22.686Q343.754,792.589,277.714,762.8c-3.409-1.545-7.161-2.611-10.272-5.76,8.172-8.765,16.177-17.423,24.262-26.007,20.558-21.83,30.765-32.928,51.274-54.8,1.68-1.792,73.349,30.425,104.783,44.563,26.366,11.858,80.9,30.015,87.921,28.906,35.007-5.525,102.521-44.75,124.053-73.468,25.262-33.694,78.071-108.956,55.4-144.528-13-20.4-39.329-55.389-61.015-65.388C606.491,444.352,559,422.084,511.469,399.9c-2.513-1.173,42.52-58.485,54.777-71.879,3.4-3.709,109.819,43.12,141.724,57.636,44.744,20.357,78.722,51.934,99.939,96.5A180.877,180.877,0,0,1,824.4,542.5c4.914,49.678-45.843,143.674-74.557,183.82-22.22,31.066-51.451,54.172-85.061,72-27.627,14.651-80.2,44.914-111.1,49.36C526.292,851.612,498.943,851.2,471.385,845.2Z" transform="translate(1062.127 1043.956) rotate(-180)" fill="none" stroke="#fff" stroke-width="24"/>
      <path id="Path_31" data-name="Path 31" d="M471.385,845.2c-21.874-4.787-41.78-13.671-61.655-22.686Q343.754,792.589,277.714,762.8c-3.409-1.545-7.161-2.611-10.272-5.76,8.172-8.765,16.177-17.423,24.262-26.007,20.558-21.83,30.765-32.928,51.274-54.8,1.68-1.792,73.349,30.425,104.783,44.563,26.366,11.858,80.9,30.015,87.921,28.906,35.007-5.525,102.521-44.75,124.053-73.468,25.262-33.694,78.071-108.956,55.4-144.528-13-20.4-39.329-55.389-61.015-65.388C606.491,444.352,559,422.084,511.469,399.9c-2.513-1.173,42.52-58.485,54.777-71.879,3.4-3.709,109.819,43.12,141.724,57.636,44.744,20.357,78.722,51.934,99.939,96.5A180.877,180.877,0,0,1,824.4,542.5c4.914,49.678-45.843,143.674-74.557,183.82-22.22,31.066-51.451,54.172-85.061,72-27.627,14.651-80.2,44.914-111.1,49.36C526.292,851.612,498.943,851.2,471.385,845.2Z" transform="translate(-19.044 46.899)" fill="none" stroke="#fff" stroke-width="24"/>
    </g>
  </g>
</svg>
