<svg xmlns="http://www.w3.org/2000/svg" xmlns:xlink="http://www.w3.org/1999/xlink" width="287" height="360" viewBox="0 0 287 360">
  <defs>
    <clipPath id="clip-Logo912">
      <rect width="287" height="360"/>
    </clipPath>
  </defs>
  <g id="Logo912" clip-path="url(#clip-Logo912)">
    <g id="Screenshot_2025-01-13_145256" data-name="Screenshot 2025-01-13 145256" transform="translate(-13.535 -24.013)">
      <path id="Path_35" data-name="Path 35" d="M82,24.992c61.812,0,123.124,0,184.436,0,9.675,0,11.643,2,11.655,11.737.008,6.831.074,13.663-.042,20.492-.094,5.61-2.6,8.217-8.143,8.727-1.653.152-3.33.06-5,.06q-57.229,0-114.46-.02c-22.416-.046-41.641,7.284-57,23.942q-23.621,25.618-18.648,60.1c4.007,27.692,19.454,46.872,44.9,57.546,7.9,3.316,16.965,4.124,25.6,5.38,8.824,1.283,18.127.428,26.593,2.771,17.757,4.915,29.358,21.4,29.711,39.58.332,17.081-8.859,33.882-26.985,40.5a51.59,51.59,0,0,1-16.954,3.17c-36.985.276-73.973.151-110.96.137-8.539,0-11.544-2.906-11.546-11.322q-.03-126.206,0-252.412c0-7.244,3.1-10.334,10.358-10.366C57.509,24.959,69.5,24.994,82,24.992Z" transform="translate(-19 2)" fill="#bfbfbf"/>
      <path id="Path_36" data-name="Path 36" d="M173,96.921c31.327,0,62.154-.006,92.981.005,9.933,0,12.106,2.145,12.106,11.917q.009,125.225,0,250.449c0,9.808-1.9,11.745-11.549,11.746q-110.478.011-220.955,0c-9.375,0-11.6-2.3-11.616-11.879-.008-6.165-.033-12.331.008-18.5.05-7.42,3.224-10.62,10.685-10.624,39.659-.018,79.317-.078,118.975.043,17.9.055,33.852-5.008,48.23-15.889,21.641-16.377,32.707-47.2,26.184-73.825C231.2,212.4,213.692,194.1,186.628,185.845c-9.907-3.02-21.019-2.279-31.6-2.829-7.982-.415-15.426-2.3-22.151-6.535-16.715-10.536-22.841-26.348-19.628-45.05,2.866-16.678,13.616-28.385,30.008-32.624C152.544,96.4,162.722,97.436,173,96.921Z" transform="translate(17 8)" fill="#bfbfbf"/>
    </g>
  </g>
</svg>
