<svg xmlns="http://www.w3.org/2000/svg" xmlns:xlink="http://www.w3.org/1999/xlink" width="1098" height="1023" viewBox="0 0 1098 1023">
  <defs>
    <clipPath id="clip-Logo91">
      <rect width="1098" height="1023"/>
    </clipPath>
  </defs>
  <g id="Logo91" clip-path="url(#clip-Logo91)">
    <g id="a_simple_geometric_design_representing_the_letter_S_using_only_black_color" data-name="a simple, geometric design representing the letter S using only black color" transform="translate(194.039 34.735) rotate(1)">
      <path id="Path_27" data-name="Path 27" d="M459.014,857.192c-21.874-4.787-41.78-13.671-61.655-22.686Q331.383,804.581,265.343,774.8c-3.409-1.545-7.161-2.611-10.272-5.76,8.172-8.765,28.548-29.415,36.633-38q30.837-32.745,61.685-65.478c1.68-1.792,3.023-2.029,5.168-1.057q47.09,21.342,94.232,42.565c26.877,12.088,53.836,24,80.668,36.184,7.837,3.56,36.52,13.31,69.671-4.075s49.544-41.008,64.725-60.406c22.35-38.374,19.963-91.03-2.706-126.6-13-20.4-31.25-34.139-52.936-44.138-47.631-21.965-95.122-44.233-142.653-66.416-2.513-1.173,36.664-43.919,48.921-57.313,2.852-3.116,107.866,43.4,142.092,62.687s71.241,33.307,92.458,77.875A180.877,180.877,0,0,1,769.518,585.2c4.914,49.678-3.932,101.964-32.646,142.11-22.22,31.066-61.225,70.94-94.835,88.764-27.627,14.651-57.46,27.156-88.357,31.6C526.292,851.612,486.572,863.192,459.014,857.192Z" transform="translate(119.691 1049.404) rotate(-114)" fill="#fff"/>
      <path id="Path_32" data-name="Path 32" d="M5.9,0,230.561.515,219.2,37l-231.383.438Z" transform="matrix(0.914, 0.407, -0.407, 0.914, 287.857, 389.587)" fill="#fff"/>
      <path id="Path_33" data-name="Path 33" d="M459.014,857.192c-21.874-4.787-41.78-13.671-61.655-22.686Q331.383,804.581,265.343,774.8c-3.409-1.545-7.161-2.611-10.272-5.76,8.172-8.765,28.548-29.415,36.633-38q30.837-32.745,61.685-65.478c1.68-1.792,3.023-2.029,5.168-1.057q47.09,21.342,94.232,42.565c26.877,12.088,53.836,24,80.668,36.184,7.837,3.56,36.52,13.31,69.671-4.075s49.544-41.008,64.725-60.406c22.35-38.374,19.963-91.03-2.706-126.6-13-20.4-31.25-34.139-52.936-44.138-47.631-21.965-95.122-44.233-142.653-66.416-2.513-1.173,36.664-43.919,48.921-57.313,2.852-3.116,107.866,43.4,142.092,62.687s71.241,33.307,92.458,77.875A180.877,180.877,0,0,1,769.518,585.2c4.914,49.678-3.932,101.964-32.646,142.11-22.22,31.066-61.225,70.94-94.835,88.764-27.627,14.651-57.46,27.156-88.357,31.6C526.292,851.612,486.572,863.192,459.014,857.192Z" transform="translate(625.769 -147.13) rotate(65)" fill="#fff"/>
    </g>
    <g id="Rectangle_5" data-name="Rectangle 5" transform="translate(28.563 8.854)" fill="none" stroke="#fff" stroke-width="100">
      <rect width="1057" height="994" rx="180" stroke="none"/>
      <rect x="50" y="50" width="957" height="894" rx="130" fill="none"/>
    </g>
    <g id="Path_47" data-name="Path 47" transform="translate(1071.946 149)" fill="none">
      <path d="M199.28,0H0V794.873H199.28Z" stroke="none"/>
      <path d="M 1.000015258789062 0.99993896484375 L 1.000015258789062 793.873046875 L 198.2800140380859 793.873046875 L 198.2800140380859 0.99993896484375 L 1.000015258789062 0.99993896484375 M 1.52587890625e-05 -6.103515625e-05 L 199.2800140380859 -6.103515625e-05 L 199.2800140380859 794.873046875 L 1.52587890625e-05 794.873046875 L 1.52587890625e-05 -6.103515625e-05 Z" stroke="none" fill="#d4d4d4"/>
    </g>
  </g>
</svg>
