<svg xmlns="http://www.w3.org/2000/svg" xmlns:xlink="http://www.w3.org/1999/xlink" width="771" height="707" viewBox="0 0 771 707">
  <defs>
    <clipPath id="clip-Logo911">
      <rect width="771" height="707"/>
    </clipPath>
  </defs>
  <g id="Logo911" clip-path="url(#clip-Logo911)">
    <g id="a_simple_geometric_design_representing_the_letter_S_using_only_black_color" data-name="a simple, geometric design representing the letter S using only black color" transform="translate(-191.425 843.265) rotate(-90)">
      <path id="Path_27" data-name="Path 27" d="M459.014,857.192c-21.874-4.787-41.78-13.671-61.655-22.686Q331.383,804.581,265.343,774.8c-3.409-1.545-7.161-2.611-10.272-5.76,8.172-8.765,28.548-29.415,36.633-38q30.837-32.745,61.685-65.478c1.68-1.792,3.023-2.029,5.168-1.057q47.09,21.342,94.232,42.565c26.877,12.088,53.836,24,80.668,36.184,7.837,3.56,36.52,13.31,69.671-4.075s49.544-41.008,64.725-60.406c22.35-38.374,19.963-91.03-2.706-126.6-13-20.4-31.25-34.139-52.936-44.138-47.631-21.965-95.122-44.233-142.653-66.416-2.513-1.173,36.664-43.919,48.921-57.313,2.852-3.116,107.866,43.4,142.092,62.687s71.241,33.307,92.458,77.875A180.877,180.877,0,0,1,769.518,585.2c4.914,49.678-3.932,101.964-32.646,142.11-22.22,31.066-61.225,70.94-94.835,88.764-27.627,14.651-57.46,27.156-88.357,31.6C526.292,851.612,486.572,863.192,459.014,857.192Z" transform="translate(233.803 1169.431) rotate(-114)" fill="#fff"/>
      <path id="Path_32" data-name="Path 32" d="M5.9,0,230.561.515,219.2,37l-231.383.438Z" transform="matrix(0.914, 0.407, -0.407, 0.914, 401.969, 509.614)" fill="#fff"/>
      <path id="Path_33" data-name="Path 33" d="M459.014,857.192c-21.874-4.787-41.78-13.671-61.655-22.686Q331.383,804.581,265.343,774.8c-3.409-1.545-7.161-2.611-10.272-5.76,8.172-8.765,28.548-29.415,36.633-38q30.837-32.745,61.685-65.478c1.68-1.792,3.023-2.029,5.168-1.057q47.09,21.342,94.232,42.565c26.877,12.088,53.836,24,80.668,36.184,7.837,3.56,36.52,13.31,69.671-4.075s49.544-41.008,64.725-60.406c22.35-38.374,19.963-91.03-2.706-126.6-13-20.4-31.25-34.139-52.936-44.138-47.631-21.965-95.122-44.233-142.653-66.416-2.513-1.173,36.664-43.919,48.921-57.313,2.852-3.116,107.866,43.4,142.092,62.687s71.241,33.307,92.458,77.875A180.877,180.877,0,0,1,769.518,585.2c4.914,49.678-3.932,101.964-32.646,142.11-22.22,31.066-61.225,70.94-94.835,88.764-27.627,14.651-57.46,27.156-88.357,31.6C526.292,851.612,486.572,863.192,459.014,857.192Z" transform="translate(739.881 -27.104) rotate(65)" fill="#fff"/>
    </g>
  </g>
</svg>
