<svg xmlns="http://www.w3.org/2000/svg" xmlns:xlink="http://www.w3.org/1999/xlink" width="677" height="735" viewBox="0 0 677 735">
  <defs>
    <linearGradient id="linear-gradient" x1="0.5" x2="0.5" y2="1" gradientUnits="objectBoundingBox">
      <stop offset="0" stop-color="#592ab7"/>
      <stop offset="0" stop-color="#6d38d4"/>
      <stop offset="0.779" stop-color="#1d2083"/>
      <stop offset="1" stop-color="#0a0617"/>
      <stop offset="1" stop-color="#501050"/>
    </linearGradient>
    <linearGradient id="linear-gradient-2" x1="0.5" x2="0.5" y2="1" gradientUnits="objectBoundingBox">
      <stop offset="0" stop-color="#391010"/>
      <stop offset="0" stop-color="#a538d4"/>
      <stop offset="0.419" stop-color="#2147af"/>
      <stop offset="1"/>
      <stop offset="1" stop-color="#501050"/>
    </linearGradient>
    <clipPath id="clip-Logo23">
      <rect width="677" height="735"/>
    </clipPath>
  </defs>
  <g id="Logo23" clip-path="url(#clip-Logo23)">
    <rect width="677" height="735"/>
    <path id="Path_29" data-name="Path 29" d="M3353.7,445.379l71.289-73.016s-248.531-194.156-192.3-238.859,417.227,60.045,417.227,60.045l73.168-72.665.355-.352S3453.543-9.055,3328.832-6.958,3122.352,76.484,3094,113.407,3051.148,230.6,3113.113,317.4,3353.7,445.379,3353.7,445.379Z" transform="translate(-3046.438 45.641)" fill="url(#linear-gradient)"/>
    <path id="Path_30" data-name="Path 30" d="M3322.959,445.379l63.574-73.016S3164.9,178.207,3215.044,133.5s372.084,60.045,372.084,60.045l65.25-72.665.316-.352S3412-9.055,3300.787-6.958s-184.138,83.442-209.422,120.365S3053.15,230.6,3108.41,317.4,3322.959,445.379,3322.959,445.379Z" transform="translate(3684.504 858.647) rotate(-177)" fill="url(#linear-gradient-2)"/>
    <path id="Path_31" data-name="Path 31" d="M3353.7,445.379l71.289-73.016s-248.531-194.156-192.3-238.859,417.227,60.045,417.227,60.045l73.168-72.665.355-.352S3453.543-9.055,3328.832-6.958,3122.352,76.484,3094,113.407,3051.148,230.6,3113.113,317.4,3353.7,445.379,3353.7,445.379Z" transform="translate(3746.076 603.726) rotate(179)" fill="url(#linear-gradient)"/>
  </g>
</svg>
