<svg xmlns="http://www.w3.org/2000/svg" xmlns:xlink="http://www.w3.org/1999/xlink" width="631" height="651" viewBox="0 0 631 651">
  <defs>
    <clipPath id="clip-Logo2">
      <rect width="631" height="651"/>
    </clipPath>
  </defs>
  <g id="Logo2" clip-path="url(#clip-Logo2)">
    <path id="Path_21" data-name="Path 21" d="M3322.959,445.379l63.574-73.016s-217.089-193.747-183.456-233.991,317.989,73.016,317.989,73.016l65.566-73.016s-192.66-121.1-303.877-119S3127.785,73.233,3102.5,110.156,3053.15,230.6,3108.41,317.4,3322.959,445.379,3322.959,445.379Z" transform="translate(-3065 -6.359)" fill="none" stroke="#fff" stroke-width="25"/>
    <path id="Path_24" data-name="Path 24" d="M3322.959,445.379l63.574-73.016s-217.089-193.747-183.456-233.991,317.989,73.016,317.989,73.016l65.566-73.016s-192.66-121.1-303.877-119S3127.785,73.233,3102.5,110.156,3053.15,230.6,3108.41,317.4,3322.959,445.379,3322.959,445.379Z" transform="matrix(-0.995, 0.105, -0.105, -0.995, 3688.271, 300.93)" fill="none" stroke="#fff" stroke-width="25"/>
  </g>
</svg>
