<svg xmlns="http://www.w3.org/2000/svg" xmlns:xlink="http://www.w3.org/1999/xlink" width="760" height="715" viewBox="0 0 760 715">
  <defs>
    <clipPath id="clip-Logo221">
      <rect width="760" height="715"/>
    </clipPath>
  </defs>
  <g id="Logo221" clip-path="url(#clip-Logo221)">
    <path id="Path_32" data-name="Path 32" d="M3353.7,445.379l71.289-73.016s-248.531-194.156-192.3-238.859,417.227,60.045,417.227,60.045l73.168-72.665.355-.352S3453.543-9.055,3328.832-6.958,3122.352,76.484,3094,113.407,3051.148,230.6,3113.113,317.4,3353.7,445.379,3353.7,445.379Z" transform="translate(-3031.438 33.641)" fill="#fff"/>
    <path id="Path_33" data-name="Path 33" d="M3353.7,445.379l71.289-73.016s-248.531-194.156-192.3-238.859,417.227,60.045,417.227,60.045l73.168-72.665.355-.352S3453.543-9.055,3328.832-6.958,3122.352,76.484,3094,113.407,3051.148,230.6,3113.113,317.4,3353.7,445.379,3353.7,445.379Z" transform="matrix(-0.999, -0.035, 0.035, -0.999, 3766.833, 783.151)" fill="#fff"/>
  </g>
</svg>
