<svg xmlns="http://www.w3.org/2000/svg" xmlns:xlink="http://www.w3.org/1999/xlink" width="670" height="732" viewBox="0 0 670 732">
  <defs>
    <clipPath id="clip-Logo22">
      <rect width="670" height="732"/>
    </clipPath>
  </defs>
  <g id="Logo22" clip-path="url(#clip-Logo22)">
    <path id="Path_21" data-name="Path 21" d="M3322.959,445.379l63.574-73.016S3164.9,178.207,3215.044,133.5s372.084,60.045,372.084,60.045l65.25-72.665.316-.352S3412-9.055,3300.787-6.958s-184.138,83.442-209.422,120.365S3053.15,230.6,3108.41,317.4,3322.959,445.379,3322.959,445.379Z" transform="translate(-3033.213 46.641)" fill="none" stroke="#fff" stroke-width="25"/>
    <path id="Path_28" data-name="Path 28" d="M3322.959,445.379l63.574-73.016S3164.9,178.207,3215.044,133.5s372.084,60.045,372.084,60.045l65.25-72.665.316-.352S3412-9.055,3300.787-6.958s-184.138,83.442-209.422,120.365S3053.15,230.6,3108.41,317.4,3322.959,445.379,3322.959,445.379Z" transform="translate(3705.874 747.665) rotate(-179)" fill="none" stroke="#fff" stroke-width="25"/>
  </g>
</svg>
