<svg xmlns="http://www.w3.org/2000/svg" xmlns:xlink="http://www.w3.org/1999/xlink" width="520" height="640" viewBox="0 0 520 640">
  <defs>
    <clipPath id="clip-Logo">
      <rect width="520" height="640"/>
    </clipPath>
  </defs>
  <g id="Logo" clip-path="url(#clip-Logo)">
    <g id="a_simple_geometric_design_representing_the_letter_S_using_only_black_color" data-name="a simple, geometric design representing the letter S using only black color" transform="translate(-273.66 -193.713)">
      <path id="Path_17" data-name="Path 17" d="M505.954,198.653c26.646-2.417,52.244.788,77.361,8.18,19.549,5.753,37.944,14.429,56.435,22.827q62.765,28.506,125.506,57.063a56.469,56.469,0,0,1,11.272,6.382c-3.364,3.23-6.678,6.168-9.716,9.367q-38.006,40.038-75.923,80.158c-1.785,1.886-2.981,3.94-6.545,2.3q-55.8-25.719-111.794-51.038c-20.622-9.356-41.424-18.318-61.942-27.892-9.327-4.353-18.7-2.707-27.948-1.353-28.749,4.207-53.665,16.2-73.408,38-14.962,16.519-23.762,35.845-27.029,57.89-6.788,45.819,21.507,91.189,59.929,108.9s76.674,35.733,114.995,53.635q18.786,8.776,37.532,17.644c1.773.837,3.464,1.846,5.632,3.011-2.127,2.453-3.854,4.588-5.729,6.584q-29.929,31.862-59.855,63.726c-1.78,1.9-3.257,2.329-5.607,1.245C480.881,633.026,431.288,613.622,384.2,589,332.59,562.02,298.018,520.088,284.588,462.9c-13.421-57.153-2.79-110.44,31.23-158.455,35.975-50.776,85.14-82.376,145.062-98.014A269.412,269.412,0,0,1,505.954,198.653Z" fill="#fff"/>
      <path id="Path_18" data-name="Path 18" d="M494.682,824.525c-21.874-4.787-41.78-13.671-61.655-22.686q-65.976-29.925-132.016-59.711c-3.409-1.545-7.161-2.611-10.272-5.76,8.172-8.765,16.177-17.423,24.262-26.007q30.837-32.745,61.685-65.478c1.68-1.792,3.023-2.029,5.168-1.057q47.09,21.342,94.232,42.565c26.877,12.088,53.836,24,80.668,36.184,7.837,3.56,15.689,2.239,23.529,1,35.007-5.525,64.244-21.148,85.776-49.866,25.262-33.694,26.655-78.273,3.986-113.845-13-20.4-31.25-34.139-52.936-44.138-47.631-21.965-95.122-44.233-142.653-66.416-2.513-1.173-5.32-2.018-7.315-5.051,8.247-9,16.47-18.113,24.841-27.086,12.386-13.276,24.994-26.348,37.251-39.742,3.4-3.709,5.972-4.566,10.934-2.263,43.495,20.185,87.144,40.041,130.79,59.9C715.7,455.425,749.679,487,770.9,531.57a180.877,180.877,0,0,1,16.488,60.335c4.914,49.678-8.83,94.265-37.544,134.411-22.22,31.066-51.451,54.172-85.061,72A267.408,267.408,0,0,1,576.977,827C549.589,830.937,522.24,830.525,494.682,824.525Z" fill="#fff"/>
      <path id="Path_19" data-name="Path 19" d="M498.709,474.269c38.776,16.455,131.254,60.465,140.195,66.786a5.491,5.491,0,0,1-.757,1.615c-8.97,9.386-18.018,18.7-26.925,28.143-1.857,1.971-3.3,2.544-5.981,1.289q-76.4-35.808-152.9-71.419c-6.634-3.1-13.232-6.272-19.832-9.44a12.381,12.381,0,0,1-4.969-3.546c3.189-5.859,8.261-10.01,12.517-14.811,4.637-5.231,9.639-10.14,14.247-15.395,1.927-2.2,3.589-2.3,6.065-1.126C473.006,462.35,485.7,468.2,498.709,474.269Z" fill="#fff"/>
    </g>
  </g>
</svg>
