<svg xmlns="http://www.w3.org/2000/svg" width="729.029" height="349.696" viewBox="0 0 729.029 349.696">
  <g id="Screenshot_2025-01-14_003545" data-name="Screenshot 2025-01-14 003545" transform="translate(-46.08 56.609)">
    <path id="Path_38" data-name="Path 38" d="M645.84,185c0,13.162-.109,25.825.023,38.486.3,29,18.39,51.371,45.705,55.93,10.715,1.789,21.636,1.592,32.152-1.707,14.78-4.636,26.6-13.258,32.748-27.833,10.247-24.3,10.286-48.353-4.8-70.851-10.079-15.037-25.216-22.3-42.958-23.968-17.594-1.65-34.055,1.829-49.217,13.22,0-11.3-.075-21.723.112-32.14.019-1.07,1.385-2.553,2.494-3.1,53.21-26.5,124.326-.406,133.928,67.969,2.792,19.879,1.266,39.689-6.856,58.277-13.492,30.877-38.927,46.217-70.947,51.522-18.791,3.113-37.577,2-55.285-6.075-28.7-13.084-44.094-36.331-49.835-66.6a86.311,86.311,0,0,1-1.23-15.895q-.126-86.469-.053-172.938V43.706H645.84Z" transform="translate(1386.929 336.794) rotate(180)" fill="#f4f4f4"/>
    <path id="Path_39" data-name="Path 39" d="M152,43.491h29.71V77H176.9c-21.325,0-42.651-.068-63.975.059a59.246,59.246,0,0,0-12.372,1.315c-12.227,2.707-20.675,9.427-22.94,22.491A33.408,33.408,0,0,0,92.28,134.993c15.366,10.054,31.986,17.481,49.083,24.091a166.715,166.715,0,0,1,25.377,12.553c21.589,12.929,30.069,33.068,30.825,57.469,1.281,41.33-23.813,67.286-64.244,76.645-8.018,1.857-16.5,2.19-24.786,2.317-20.487.315-40.983.106-61.475.1-.8,0-1.6-.13-2.645-.22V275h4.92c18.66,0,37.319.04,55.978-.015a73.245,73.245,0,0,0,34.924-8.833c24.958-13.4,27.3-46.638,4.414-63.411-12.32-9.03-26.29-14.765-40.551-19.871-17.053-6.106-33.034-13.975-45.882-27.218C36.9,133.673,32.63,94.478,49.268,70.276c9.514-13.838,23.914-20.319,39.519-24.117A110.463,110.463,0,0,1,111.519,43.6C124.836,43.206,138.172,43.491,152,43.491Z" transform="translate(7 -100)" fill="#f4f4f4"/>
  </g>
</svg>
