<svg xmlns="http://www.w3.org/2000/svg" width="612" height="752" viewBox="0 0 612 752">
  <g id="Screenshot_2024-12-13_093232" data-name="Screenshot 2024-12-13 093232" transform="translate(-1 -1)">
    <path id="Path_10" data-name="Path 10" d="M613,200V753H1Q1,377,1,1H613V200M380.639,30.993c-19.39-5.38-38.761-10.829-58.193-16.052a15.348,15.348,0,0,0-7.708-.023Q224.087,39.948,133.485,65.152c-3.3.911-4.237,2.595-3.76,5.659,1.516,9.752-3.165,16.632-10.4,22.306-1.835,1.438-3.681,2.864-5.554,4.251C94.152,111.892,71.989,121.4,49.3,129.777c-3.643,1.345-4.63,3.105-4.625,6.826q.157,135,.043,269.995a284.807,284.807,0,0,0,9,73.173c13.346,50.733,39.214,94.58,74.354,133,52.6,57.5,116.182,99.306,187.85,129.184a9.475,9.475,0,0,0,6.5-.309c30.476-12.357,59.285-27.916,87.008-45.559,42.06-26.767,79.7-58.644,111.465-97.153C568.886,540.75,594.464,474.6,593,398.367c-.956-49.647-.18-99.328-.181-148.994,0-37.832-.048-75.665.082-113.5.012-3.406-.927-4.95-4.234-6-6.178-1.952-12.22-4.369-18.223-6.828a226.288,226.288,0,0,1-49.219-27.344c-9.047-6.7-15.679-14.518-13.527-26.838a10.058,10.058,0,0,0-.283-2.6C465.369,54.549,423.4,42.849,380.639,30.993Z" fill="#fefefe"/>
    <path id="Path_11" data-name="Path 11" d="M381.038,31.071c42.365,11.778,84.331,23.478,126.373,35.2a10.058,10.058,0,0,1,.283,2.6c-2.152,12.32,4.48,20.141,13.527,26.838a226.288,226.288,0,0,0,49.219,27.344c6,2.459,12.045,4.876,18.223,6.828,3.307,1.045,4.246,2.589,4.234,6-.13,37.832-.082,75.665-.082,113.5,0,49.666-.775,99.347.181,148.994,1.468,76.237-24.11,142.383-72.1,200.566-31.766,38.509-69.405,70.386-111.465,97.153-27.723,17.643-56.532,33.2-87.008,45.559a9.475,9.475,0,0,1-6.5.309c-71.668-29.878-135.255-71.681-187.85-129.184-35.14-38.419-61.008-82.266-74.354-133a284.807,284.807,0,0,1-9-73.173q.148-135-.043-269.995c0-3.721.982-5.481,4.625-6.826,22.692-8.377,44.855-17.885,64.472-32.41,1.873-1.387,3.719-2.813,5.554-4.251,7.237-5.674,11.918-12.554,10.4-22.306-.477-3.064.463-4.747,3.76-5.659Q224.129,40.1,314.738,14.917a15.348,15.348,0,0,1,7.708.023c19.432,5.224,38.8,10.672,58.592,16.131m142.855,80.57c-5.793-4.473-11.88-8.627-17.231-13.576-2.128-1.968-3.267-5.6-3.711-8.649-.616-4.229-.155-8.615-.155-13.136-1.652-.515-3.052-.986-4.471-1.389Q410.726,50.057,323.1,25.34a17.746,17.746,0,0,0-9.138.077C256,41.69,198.106,58.179,140.145,74.432c-4.3,1.205-6.363,2.931-5.5,7.43,2.006,10.47-2.987,17.488-11.281,22.9-2.091,1.364-4.069,2.9-6.146,4.287C99.371,120.973,79.8,129.363,59.76,136.691c-3.746,1.37-4.912,3.117-4.906,7.126.134,87.321-.146,174.643.308,261.962a310.507,310.507,0,0,0,4.6,53.146c9.612,53.411,34.1,100.005,69.228,140.886,50.89,59.219,113.677,102.1,185.5,132.046a12.3,12.3,0,0,0,8.389.1c31.3-12.241,60.472-28.606,88.37-47.185,45.58-30.353,86.062-66.214,117.567-111.446,34.758-49.9,53.8-104.951,53.819-166.119q.042-131.982.1-263.963c.006-3.9-1.313-5.381-4.874-6.571C559.191,130.428,541.19,122.633,523.893,111.641Z" fill="#252525"/>
    <path id="Path_12" data-name="Path 12" d="M524.2,111.828c16.987,10.805,34.988,18.6,53.668,24.845,3.561,1.19,4.88,2.67,4.874,6.571q-.184,131.982-.1,263.963c-.02,61.168-19.061,116.214-53.819,166.119-31.5,45.232-71.987,81.093-117.567,111.446-27.9,18.579-57.068,34.944-88.37,47.185a12.3,12.3,0,0,1-8.389-.1c-71.827-29.949-134.614-72.827-185.5-132.046C93.863,558.93,69.378,512.336,59.766,458.925a310.507,310.507,0,0,1-4.6-53.146c-.454-87.319-.174-174.641-.308-261.962-.006-4.009,1.161-5.756,4.906-7.126,20.043-7.328,39.611-15.718,57.457-27.641,2.077-1.387,4.055-2.923,6.146-4.287,8.294-5.413,13.287-12.431,11.281-22.9-.862-4.5,1.2-6.225,5.5-7.43C198.106,58.179,256,41.69,313.958,25.417a17.746,17.746,0,0,1,9.138-.077q87.66,24.615,175.229,49.551c1.419.4,2.819.874,4.471,1.389,0,4.521-.461,8.907.155,13.136.444,3.044,1.583,6.681,3.711,8.649,5.351,4.949,11.438,9.1,17.541,13.763M162.291,82.8c-3.207.884-6.38,1.935-9.632,2.6-3.234.666-4.164,2.16-4.665,5.626a32.926,32.926,0,0,1-5.046,13.609c-2.949,4.286-7.238,7.819-11.429,11.05-17.575,13.546-37.452,22.875-58.069,30.678-3.706,1.4-4.959,3.092-4.952,7.14.14,84.151-.171,168.3.329,252.45a292.365,292.365,0,0,0,4.964,53.1c10.8,56.246,38.667,103.838,77.533,145.178,46.415,49.368,101.66,86.194,163.692,113.032a10.443,10.443,0,0,0,7.375-.023c31.6-13.22,61.252-30.051,89.372-49.544,46.477-32.219,87.1-70.273,116.72-119.019,24.7-40.659,39.671-84.577,40.032-132.38.665-88.144.294-176.3.447-264.444.005-2.9-1.139-3.955-3.624-4.951-8.648-3.463-17.382-6.809-25.715-10.941-15.526-7.7-30.9-15.772-43.172-28.446-4.274-4.413-7.676-9.451-7.26-15.893.256-3.957-1.312-5.4-4.91-6.416C430.652,70.127,377.07,54.879,323.426,39.853a18.773,18.773,0,0,0-9.653.015C263.5,53.966,213.282,68.259,162.291,82.8Z" fill="#f8f8f8"/>
    <path id="Path_13" data-name="Path 13" d="M162.671,82.652c50.611-14.393,100.829-28.686,151.1-42.783a18.773,18.773,0,0,1,9.653-.015C377.07,54.879,430.652,70.127,484.282,85.2c3.6,1.012,5.166,2.459,4.91,6.416-.416,6.442,2.986,11.48,7.26,15.893,12.272,12.674,27.646,20.747,43.172,28.446,8.333,4.132,17.067,7.478,25.715,10.941,2.485,1,3.629,2.05,3.624,4.951-.153,88.148.218,176.3-.447,264.444-.361,47.8-15.328,91.721-40.032,132.38-29.617,48.746-70.243,86.8-116.72,119.019-28.12,19.493-57.768,36.324-89.372,49.544a10.443,10.443,0,0,1-7.375.023C252.985,690.424,197.74,653.6,151.325,604.23,112.459,562.89,84.587,515.3,73.792,459.052a292.365,292.365,0,0,1-4.964-53.1c-.5-84.147-.19-168.3-.329-252.45-.007-4.048,1.246-5.737,4.952-7.14,20.617-7.8,40.494-17.132,58.069-30.678,4.191-3.231,8.48-6.764,11.429-11.05a32.926,32.926,0,0,0,5.046-13.609c.5-3.466,1.431-4.96,4.665-5.626,3.252-.67,6.425-1.721,10.012-2.748M277.5,91.958a1.774,1.774,0,0,1-1.071-.415c-2.918-3.678-6.471-3.437-9.863-1.09-3.061,2.118-3.355,7.807-.943,10.533,3,3.39,7.1,3.06,11.879-.889,0,0,.351-.066.8.541,2.131,3.345,5.487,2.928,8.472,2.188,1.383-.343,3.191-2.362,3.249-3.69s-1.626-3.009-2.95-3.991c-1.283-.951-3.08-1.209-4.652-1.771q.119-.525.235-1.049l7.225.745c-3.975-5.343-7.6-5.4-12.385-1.112m206.707,159.8c4.4,9.485,8.751,18.993,13.272,28.42a4.259,4.259,0,0,0,2.959,2.07c3.594.256,7.216.1,10.806.1v-46.9h-9.3v33.1c-5.129-10.419-9.882-20.25-14.851-29.969-.711-1.39-2.367-3-3.766-3.2-3.393-.464-6.892-.151-10.522-.151v46.727h9.65c0-10.191,0-20,.4-30.012a1.03,1.03,0,0,1,1.355-.185M351.132,539.634c5.628-5.56,12.438-7.685,20.3-8.212a207.38,207.38,0,0,0,29.127-3.767c7.7-1.634,15.689-5.1,19.056-12.526,3.131-6.9,7.609-7.32,13.632-7.011,5.65.29,11.328.062,16.993.062h14.77l.861-1.31c-2.6-3.277-5.189-6.561-7.8-9.828-.813-1.016-2.051-1.852-2.468-3-3.467-9.545-8.521-12.673-17.889-10.875a23.688,23.688,0,0,1-18.426-3.765c-7.75-5.248-20.094-5.571-26.54.989-4.67,4.753-10.546,6.615-15.592,10.159-5.111,3.59-9.587,8.113-14.163,12.417-1.189,1.119-1.71,2.947-3.059,5.4h42.606a5.761,5.761,0,0,1-3.654,2.844c-8.66,1.416-17.324,3.563-26.03,3.784-17.626.446-31.173,7.279-40.32,22.456a11.6,11.6,0,0,0-.834,2.774L330.14,538.9c-1.66-10.194-2.934-20.383-.08-30.632a13.871,13.871,0,0,1,8.169-9.434c26.075-11.8,46.114-29.043,52.294-59.274h89.415c-10.832-21.571-28.767-33.229-49.119-41.713,1.058-8.667-.46-12.795-8.277-15.921-5.833-2.332-12.513-2.527-18.8-3.753-1.965-.384-4.491-.418-5.72-1.649-9.213-9.23-20.14-10.522-31.886-6.917-10.973,3.367-18.918,9.772-18.675,22.223-6.859,2.261-13.479,4.028-19.754,6.627-6.438,2.665-12.6,6.029-18.763,9.312-3.148,1.678-5.817,4.691-9.62,1-.845-.821-2.869-.6-4.345-.569-4.451.084-8.913.155-13.348.509-8.783.7-17.547,1.627-26.326,2.376a38.024,38.024,0,0,1-8.282.215c-7.248-.993-12.871,1.5-16.537,7.563a13.245,13.245,0,0,1-3.363,3.45c-2.908,2.217-6.181,4.011-8.852,6.47-2.359,2.172-4.183,2.555-7.41,1.543-10.61-3.326-20.936-2.435-29.509,5.3-2.5,2.256-5.6,6.719-4.893,9.136,2.275,7.774-2.68,10.675-7.128,14.782-3.862,3.565-6.88,8.056-10.159,12.225-.606.771-.678,1.962-1.132,3.386h5.524c13.164,0,26.328-.076,39.49.1,1.611.021,4.2,1.018,4.65,2.205,3.534,9.262,10.627,14.826,19.59,17.083a144.068,144.068,0,0,0,29,4.22c16.181.675,25.731,6.877,31.19,22.274a80.894,80.894,0,0,1,4.2,32.97c-1.882,27.259-3.609,54.529-5.641,81.776-.323,4.333.933,6.524,5.109,7.461a103.487,103.487,0,0,0,46.989.025c4.142-.974,5.5-3.087,5.186-7.437-1.475-20.273-2.661-40.567-3.863-60.859-.77-13.018,2.9-24.662,11.675-35.329m58.249-329.1v14.4h9.756V178.374h-16.25c-2.416,10.741-4.788,21.289-7.161,31.837-2.961-9.509-5.059-19.021-7.364-28.482-.32-1.315-1.6-3.339-2.538-3.4-5.049-.338-10.134-.159-15.248-.159V225H380.59V193.18a5.811,5.811,0,0,1,2.369,3.248c2.442,8.185,5.222,16.3,7.055,24.624.847,3.844,2.553,4.108,5.719,4.315,5.194.339,4.772-3.806,5.629-6.6,2.722-8.877,5.108-17.858,7.624-26.8l1.4.225c-.334,5.787-.668,11.573-1,18.342M264.2,269.439c1.665,3.605,3.211,7.274,5.072,10.776a4.369,4.369,0,0,0,3,2.036c3.57.253,7.169.1,10.629.1V235.512h-9.15v33.316c-4.873-9.994-9.72-20.1-14.766-30.1-.714-1.416-2.286-3.157-3.649-3.339-3.536-.472-7.176-.159-10.932-.159v46.831H253.8V250.054l.7-.382c3.161,6.346,6.322,12.691,9.7,19.767m-10.969-80.9v22.2c-4.3-8.794-9.139-18.838-14.146-28.8-.735-1.461-2.14-3.427-3.442-3.6-3.678-.491-7.463-.171-11.185-.171v46.81h9.3v-34.14c.674,1.149,1.516,2.35,2.125,3.659,4.248,9.119,8.37,18.3,12.742,27.355.674,1.4,2.323,3.058,3.7,3.237,3.529.46,7.158.154,10.564.154V178.431h-9.659v10.111m38.029,80.937v12.876c5.693,0,10.978.12,16.255-.027,9.425-.262,16.371-4.293,20.09-13.337,3.542-8.615,2.1-20.961-3.621-26.542-9.4-9.163-21.137-6.953-32.724-7.149v34.179m140.006,8.752c11.351,9.124,26.167,5.647,31.953-5.418,3.542-6.773,3.926-14.151,2.176-21.618-1.992-8.494-9.473-15.4-16.88-16.014-13.1-1.081-20.21,3.918-23.015,14.149-2.733,9.969-2.457,20.062,5.766,28.9m-258.557-43c-8.075-.7-15.737,6.641-17.281,13.187a48.776,48.776,0,0,0-1.118,16.226,20.728,20.728,0,0,0,31.406,15.788c6.545-3.887,8.618-10.034,9.885-17.292,2.31-13.226-6.338-30.353-22.892-27.909m168.649,44.66c2.442-9.634.4-8.48,10.33-8.547a10.545,10.545,0,0,0,2-.018c4.663-.949,6.976,1.527,7.363,5.675.421,4.521,2.549,6.055,6.829,5.389a47.316,47.316,0,0,1,4.983-.248,46.661,46.661,0,0,0-.884-4.7c-3.081-10.231-6.174-20.459-9.352-30.661-3.668-11.776-3.707-11.765-16.162-11.551-.81.013-1.619.083-2.64.139-4.678,15.607-9.319,31.086-14.387,47.99a63.492,63.492,0,0,0,11.924-3.469M179.135,217.4c-.814,2.434-1.629,4.869-2.627,7.851a52.548,52.548,0,0,1,6.073.039c3.812.49,5.988-.757,6.136-4.866.191-5.3,3.094-7.123,8.139-6.227a10.807,10.807,0,0,0,3.977,0c4.478-.922,6.656,1.463,6.956,5.36.392,5.086,2.988,6.434,7.53,5.722,1.407-.221,2.857-.169,4.66-.261-4.446-15.144-8.728-29.9-13.209-44.6-.3-.987-2.075-2.084-3.223-2.153-4.28-.254-8.585-.1-12.825-.1C186.8,191.245,183,203.913,179.135,217.4m270.213-11.173,4.817-.216v-8.96h-16.3v-8.863h18.368v-9.7H427.783v46.563h29.464v-8.95H437.766v-9.877h11.582M234.942,274.149c.774-5.5,1.936-10.989,2.226-16.519.386-7.384.1-14.8.1-22.1H227.214c0,3.095.084,5.893-.016,8.684-.29,8.1-.364,16.226-1.112,24.286-.374,4.026-4.56,5.891-8.494,5.037-5.147-1.118-6.322-4.741-6.338-9.214-.034-9.589-.01-19.179-.01-28.687H201.192c0,11.227-.014,22.044.026,32.86a10.421,10.421,0,0,0,.566,2.857c2.436,8.176,8.928,11.341,16.478,11.824,6.657.425,12.722-1.957,16.68-9.027M239.5,323.49H488.653q0-.946-.007-1.893H156.659l-.018,1.893H239.5m-95.977-59.179h4.339v-9.255H133.468v-9.835h16.369v-9.607H122.283V282.07h10.925V264.311h10.315m126.015-81.459c2,4.333,3.789,8.787,6.059,12.976,4.762,8.79,9.429,17.536,7.747,28.082-.042.263.264.58.52,1.1h9.915c-2.876-11.758,2.437-21.216,7.576-30.75,2.125-3.941,4.053-7.988,6.017-12.014.592-1.214,1-2.516,1.552-3.919H297.913l-9.672,22.853c-3.461-8.224-6.543-15.55-9.63-22.888h-10.8c.52,1.453.949,2.648,1.727,4.56m125.739,52.365H368.589v10.217h11.143v36.531h9.945V245.228h11.4V235.217h-5.8M324.3,216.437v8.542h10.287v-36.8h11.517v-9.683H313.677v9.822H324.3v28.121m-23.8-73q-73.221.105-146.441.233c-.262,0-.543.343-.772.57-.089.088-.071.3-.078.451s.013.333.025.6H484.917q0-.924,0-1.849H300.5m109.351,91.779c-.825,1.426-2.344,2.841-2.365,4.278-.187,12.8-.119,25.6-.1,38.406,0,1.414.2,2.827.287,4.062h9.408V235.213c-2.381,0-4.367,0-7.235,0M362.408,221.2V178.5h-9.773V225.26c2.622,0,5,.318,7.207-.141,1.018-.212,1.72-1.945,2.566-3.921m3.124-118.092c3.709.144,4.854-3.023,4.707-5.3-.292-4.513-1.746-8.952-2.989-14.658-2.15,1.059-5.063,1.619-6.422,3.379-1.825,2.363-2.484,5.639-3.578,8.548-1.686,4.488-1.889,4.6-7.142,3.151,3.152-3.562,6.469-7.542,3.377-12.139-1.077-1.6-5.408-1.924-7.906-1.342-1.65.384-2.68,3.424-3.987,5.276l1.568,1.431c1.092-.585,2.233-1.094,3.261-1.775,1.084-.717,2.059-1.6,3.082-2.408.106,1.592.881,3.6.2,4.7-2.288,3.684-5.1,7.043-8.2,11.179,2.61,0,4.59.285,6.446-.072,2.356-.452,5.544,1.931,6.96-2.475.634-1.973,8.6-.107,10.625,2.5m-37.38-16.519a18.577,18.577,0,0,0-1.413,2.61c-2.158,6.066.58,13.325,5.28,13.916,3.388.427,6.092-.4,7.54-4.042,1.572-3.95,1.155-11.53-1.6-13.6-3.05-2.284-6.458-2.208-9.8,1.114M317.3,95.6l-5.751,7.255h12.58l.814-1.263-4.475-3.76c2.533-3.171,6.274-7.141,2.848-11.946-1.1-1.536-5.2-1.9-7.523-1.273-1.776.479-2.907,3.354-4.324,5.164l1.53,1.69c1.143-.657,2.306-1.282,3.425-1.979,1.1-.682,2.148-1.436,3.22-2.159.117,1.483.55,3.033.257,4.43-.251,1.192-1.336,2.208-2.6,3.841m-24.064-9.038c-3.147,3.465-.578,7.454-.884,11.172-.4,4.867,1.6,5.971,7.059,4.649-.138-.616-.063-1.5-.449-1.812-3.619-2.906-4.419-5.712-.163-8.8.389-.283.232-1.814-.134-2.529a9.876,9.876,0,0,0-2.518-3.286C295.552,85.489,294.326,85.836,293.235,86.562Z" fill="#1e1e1e"/>
    <path id="Path_14" data-name="Path 14" d="M350.893,539.9a48.76,48.76,0,0,0-11.436,35.06c1.2,20.292,2.388,40.586,3.863,60.859.316,4.35-1.044,6.463-5.186,7.437a103.487,103.487,0,0,1-46.989-.025c-4.176-.937-5.432-3.128-5.109-7.461,2.032-27.247,3.759-54.517,5.641-81.776a80.894,80.894,0,0,0-4.2-32.97c-5.459-15.4-15.009-21.6-31.19-22.274a144.068,144.068,0,0,1-29-4.22c-8.963-2.257-16.056-7.821-19.59-17.083-.453-1.187-3.039-2.184-4.65-2.205-13.162-.176-26.326-.1-39.49-.1H158.04c.454-1.424.526-2.615,1.132-3.386,3.279-4.169,6.3-8.66,10.159-12.225,4.448-4.107,9.4-7.008,7.128-14.782-.707-2.417,2.391-6.88,4.893-9.136,8.573-7.732,18.9-8.623,29.509-5.3,3.227,1.012,5.051.629,7.41-1.543,2.671-2.459,5.944-4.253,8.852-6.47a13.245,13.245,0,0,0,3.363-3.45c3.666-6.062,9.289-8.556,16.537-7.563a38.024,38.024,0,0,0,8.282-.215c8.779-.749,17.543-1.675,26.326-2.376,4.435-.354,8.9-.425,13.348-.509,1.476-.028,3.5-.252,4.345.569,3.8,3.7,6.472.682,9.62-1,6.163-3.283,12.325-6.647,18.763-9.312,6.275-2.6,12.895-4.366,19.754-6.627-.243-12.451,7.7-18.856,18.675-22.223,11.746-3.605,22.673-2.313,31.886,6.917,1.229,1.231,3.755,1.265,5.72,1.649,6.287,1.226,12.967,1.421,18.8,3.753,7.817,3.126,9.335,7.254,8.277,15.921,20.352,8.484,38.287,20.142,49.119,41.713H390.523c-6.18,30.231-26.219,47.472-52.294,59.274a13.871,13.871,0,0,0-8.169,9.434c-2.854,10.249-1.58,20.438.08,30.632l1.556,1.325a11.6,11.6,0,0,1,.834-2.774c9.147-15.177,22.694-22.01,40.32-22.456,8.706-.221,17.37-2.368,26.03-3.784a5.761,5.761,0,0,0,3.654-2.844H359.928c1.349-2.448,1.87-4.276,3.059-5.4,4.576-4.3,9.052-8.827,14.163-12.417,5.046-3.544,10.922-5.406,15.592-10.159,6.446-6.56,18.79-6.237,26.54-.989a23.688,23.688,0,0,0,18.426,3.765c9.368-1.8,14.422,1.33,17.889,10.875.417,1.146,1.655,1.982,2.468,3,2.612,3.267,5.2,6.551,7.8,9.828l-.861,1.31h-14.77c-5.665,0-11.343.228-16.993-.062-6.023-.309-10.5.111-13.632,7.011-3.367,7.424-11.359,10.892-19.056,12.526a207.38,207.38,0,0,1-29.127,3.767c-7.857.527-14.667,2.652-20.534,8.481M340.48,446.086H298.238c-.61,13.135,7.892,27.092,19.157,31.784,1.4.583,3.4.992,4.667.441,12.091-5.253,23.837-11.1,32.69-21.343,4.261-4.931,7.694-10.279,9.231-16.947H350.712c.836,2.144,1.505,3.857,2.367,6.065h-12.6m-30.73,45.38c-.43-1.392-.438-3.246-1.366-4.094a124.383,124.383,0,0,0-11.152-9.119c-1.964-1.416-4.427-2.994-6.681-3.021-19.8-.234-39.6-.142-59.4-.122-1.369,0-2.737.2-4.1.31,2.115,2.209,4.38,3.835,6.84,4.22,8.175,1.282,16.407,2.817,24.642,2.98,17.558.348,30.612,7.811,39.468,22.811,1.72,2.914,3.11,6.023,4.191,8.14,2.274-6.8,4.727-14.145,7.566-22.1M284.627,446.54l-12.829-.723q-.095.581-.188,1.162l14.59,8.465A83.9,83.9,0,0,0,284.627,446.54Z" fill="#fcfcfc"/>
    <path id="Path_15" data-name="Path 15" d="M409.381,210.042c.334-6.278.668-12.064,1-17.851l-1.4-.225c-2.516,8.941-4.9,17.922-7.624,26.8-.857,2.8-.435,6.941-5.629,6.6-3.166-.207-4.872-.471-5.719-4.315-1.833-8.323-4.613-16.439-7.055-24.624a5.811,5.811,0,0,0-2.369-3.248V225H370.576V178.167c5.114,0,10.2-.179,15.248.159.943.064,2.218,2.088,2.538,3.4,2.3,9.461,4.4,18.973,7.364,28.482,2.373-10.548,4.745-21.1,7.161-31.837h16.25v46.562h-9.756Z" fill="#f4f4f4"/>
    <path id="Path_16" data-name="Path 16" d="M482.457,252.149v29.808h-9.65V235.23c3.63,0,7.129-.313,10.522.151,1.4.192,3.055,1.806,3.766,3.2,4.969,9.719,9.722,19.55,14.851,29.969v-33.1h9.3v46.9c-3.59,0-7.212.158-10.806-.1a4.259,4.259,0,0,1-2.959-2.07c-4.521-9.427-8.872-18.935-13.461-29.12a7.692,7.692,0,0,0-2.675-1.889Z" fill="#f7f7f7"/>
    <path id="Path_17" data-name="Path 17" d="M264.094,269.074c-3.269-6.711-6.43-13.056-9.591-19.4l-.7.382v32.009H244.4V235.232c3.756,0,7.4-.313,10.932.159,1.363.182,2.935,1.923,3.649,3.339,5.046,10,9.893,20.1,14.766,30.1V235.512h9.15v46.835c-3.46,0-7.059.157-10.629-.1a4.369,4.369,0,0,1-3-2.036C267.414,276.713,265.868,273.044,264.094,269.074Z" fill="#f6f6f6"/>
    <path id="Path_18" data-name="Path 18" d="M253.234,188.053v-9.622h9.659v46.818c-3.406,0-7.035.306-10.564-.154-1.375-.179-3.024-1.841-3.7-3.237-4.372-9.058-8.494-18.236-12.742-27.355-.609-1.309-1.451-2.51-2.125-3.659v34.14h-9.3v-46.81c3.722,0,7.507-.32,11.185.171,1.3.175,2.707,2.141,3.442,3.6,5.007,9.96,9.849,20,14.146,28.8Z" fill="#f7f7f7"/>
    <path id="Path_19" data-name="Path 19" d="M291.263,268.982V235.3c11.587.2,23.326-2.014,32.724,7.149,5.725,5.581,7.163,17.927,3.621,26.542-3.719,9.044-10.665,13.075-20.09,13.337-5.277.147-10.562.027-16.255.027V268.982m23.546,1.431c4.148-3.475,3.049-8.317,3.6-12.853,1.309-10.861-8.183-14.195-15.86-11.459v27.905C306.749,272.893,310.469,271.909,314.809,270.413Z" fill="#f6f6f6"/>
    <path id="Path_20" data-name="Path 20" d="M430.982,278.012c-7.936-8.62-8.212-18.713-5.479-28.682,2.805-10.231,9.916-15.23,23.015-14.149,7.407.611,14.888,7.52,16.88,16.014,1.75,7.467,1.366,14.845-2.176,21.618-5.786,11.065-20.6,14.542-32.24,5.2m3.494-19.467a33.334,33.334,0,0,0,.043,3.976c.815,6.431,5.141,11.4,10.119,11.733,4.563.3,9.548-3.735,10.432-9.428a38.516,38.516,0,0,0-.152-12.3,9.862,9.862,0,0,0-9.71-8.257c-5.278-.086-8.232,2.889-9.694,7.588A38.556,38.556,0,0,0,434.476,258.545Z" fill="#f6f6f6"/>
    <path id="Path_21" data-name="Path 21" d="M173.162,235.226c16.1-2.444,24.752,14.683,22.442,27.909-1.267,7.258-3.34,13.4-9.885,17.292a20.728,20.728,0,0,1-31.406-15.788,48.776,48.776,0,0,1,1.118-16.226c1.544-6.546,9.206-13.887,17.731-13.187m-8.132,17.565c.032,4.205-.616,8.558.256,12.582,1.295,5.979,5.872,9.4,10.165,8.844,5.745-.737,9.5-5.3,9.737-11.917.078-2.163.051-4.333,0-6.5-.119-5.445-3.938-10.68-8.361-11.516C171.51,243.28,167.757,245.764,165.03,252.791Z" fill="#f7f7f7"/>
    <path id="Path_22" data-name="Path 22" d="M341.3,280.286a121.638,121.638,0,0,1-11.861,3.069c5.068-16.9,9.709-32.383,14.387-47.99,1.021-.056,1.83-.126,2.64-.139,12.455-.214,12.494-.225,16.162,11.551,3.178,10.2,6.271,20.43,9.352,30.661a46.661,46.661,0,0,1,.884,4.7,47.316,47.316,0,0,0-4.983.248c-4.28.666-6.408-.868-6.829-5.389-.387-4.148-2.7-6.624-7.363-5.675a10.545,10.545,0,0,1-2,.018c-9.927.067-7.888-1.087-10.393,8.947m9.635-35.894-5,18.632h11.183A156.1,156.1,0,0,0,350.933,244.392Z" fill="#f6f6f6"/>
    <path id="Path_23" data-name="Path 23" d="M179.169,216.993c3.832-13.08,7.63-25.748,11.553-38.83,4.24,0,8.545-.153,12.825.1,1.148.069,2.922,1.166,3.223,2.153,4.481,14.7,8.763,29.457,13.209,44.6-1.8.092-3.253.04-4.66.261-4.542.712-7.138-.636-7.53-5.722-.3-3.9-2.478-6.282-6.956-5.36a10.807,10.807,0,0,1-3.977,0c-5.045-.9-7.948.928-8.139,6.227-.148,4.109-2.324,5.356-6.136,4.866a52.548,52.548,0,0,0-6.073-.039c1-2.982,1.813-5.417,2.661-8.263m14.959-15.6c-.333,1.458-.667,2.917-1.055,4.615h10.845c-1.77-6.557-3.458-12.814-5.147-19.072l-.9.08C196.637,191.524,195.407,196.037,194.128,201.388Z" fill="#f7f7f7"/>
    <path id="Path_24" data-name="Path 24" d="M448.872,206.232H437.766v9.877h19.481v8.95H427.783V178.5h28.452v9.7H437.867v8.863h16.3v8.96C452.556,206.088,450.952,206.16,448.872,206.232Z" fill="#f6f6f6"/>
    <path id="Path_25" data-name="Path 25" d="M234.75,274.483c-3.766,6.736-9.831,9.118-16.488,8.693-7.55-.483-14.042-3.648-16.478-11.824a10.421,10.421,0,0,1-.566-2.857c-.04-10.816-.026-21.633-.026-32.86h10.052c0,9.508-.024,19.1.01,28.687.016,4.473,1.191,8.1,6.338,9.214,3.934.854,8.12-1.011,8.494-5.037.748-8.06.822-16.185,1.112-24.286.1-2.791.016-5.589.016-8.684h10.049c0,7.3.291,14.717-.1,22.1C236.878,263.16,235.716,268.645,234.75,274.483Z" fill="#f6f6f6"/>
    <path id="Path_26" data-name="Path 26" d="M239,323.49H156.641l.018-1.893H488.646q0,.947.007,1.893Z" fill="#d5d5d5"/>
    <path id="Path_27" data-name="Path 27" d="M143.036,264.311h-9.828V282.07H122.283V235.614h27.554v9.607H133.468v9.835h14.394v9.255Z" fill="#f8f8f8"/>
    <path id="Path_28" data-name="Path 28" d="M269.363,182.493c-.6-1.553-1.032-2.748-1.552-4.2,3.879,0,7.34,0,10.8.007,3.085,7.331,6.167,14.657,9.628,22.881l9.672-22.853h11.011c-.549,1.4-.96,2.705-1.552,3.919-1.964,4.026-3.892,8.073-6.017,12.014-5.139,9.534-10.452,18.992-7.576,30.75h-9.915c-.256-.52-.562-.837-.52-1.1,1.682-10.546-2.985-19.292-7.747-28.082C273.327,191.639,271.542,187.185,269.363,182.493Z" fill="#f5f5f5"/>
    <path id="Path_29" data-name="Path 29" d="M395.746,235.217h5.329v10.011h-11.4v36.737h-9.945V245.434H368.589V235.217Z" fill="#f5f5f5"/>
    <path id="Path_30" data-name="Path 30" d="M324.3,215.944V188.316H313.677v-9.822h32.428v9.683H334.588v36.8H324.3Z" fill="#f6f6f6"/>
    <path id="Path_31" data-name="Path 31" d="M301,143.437H484.921q0,.924,0,1.849H153.234c-.012-.262-.032-.429-.025-.6s-.011-.363.078-.451c.229-.227.51-.57.772-.57C202.872,143.575,251.686,143.507,301,143.437Z" fill="#d3d3d3"/>
    <path id="Path_32" data-name="Path 32" d="M410.292,235.215c2.427,0,4.413,0,6.794,0v46.749h-9.408c-.092-1.235-.284-2.648-.287-4.062-.024-12.8-.092-25.606.1-38.406C407.507,238.057,409.026,236.642,410.292,235.215Z" fill="#f3f3f3"/>
    <path id="Path_41" data-name="Path 41" d="M482.655,252.047a15.01,15.01,0,0,1-1.311-2.876,9.335,9.335,0,0,1,2.5,1.569A3.076,3.076,0,0,1,482.655,252.047Z" fill="#828282"/>
    <path id="Path_42" data-name="Path 42" d="M340.974,446.086h12.105c-.862-2.208-1.531-3.921-2.367-6.065h13.271c-1.537,6.668-4.97,12.016-9.231,16.947-8.853,10.246-20.6,16.09-32.69,21.343-1.268.551-3.266.142-4.667-.441-11.265-4.692-19.767-18.649-19.157-31.784Z" fill="#232323"/>
    <path id="Path_43" data-name="Path 43" d="M309.557,491.776c-2.646,7.65-5.1,14.991-7.373,21.795-1.081-2.117-2.471-5.226-4.191-8.14-8.856-15-21.91-22.463-39.468-22.811-8.235-.163-16.467-1.7-24.642-2.98-2.46-.385-4.725-2.011-6.84-4.22,1.368-.108,2.736-.308,4.1-.31,19.8-.02,39.6-.112,59.4.122,2.254.027,4.717,1.605,6.681,3.021a124.383,124.383,0,0,1,11.152,9.119C309.312,488.22,309.32,490.074,309.557,491.776Z" fill="#292929"/>
    <path id="Path_44" data-name="Path 44" d="M284.843,446.919c.555,2.8.894,5.221,1.357,8.525l-14.59-8.465q.095-.58.188-1.162C276.074,446.058,280.351,446.3,284.843,446.919Z" fill="#3f3f3f"/>
    <path id="Path_45" data-name="Path 45" d="M314.5,270.669c-4.03,1.24-7.75,2.224-11.954,3.337V246.1c7.677-2.736,17.169.6,15.86,11.459C317.858,262.1,318.957,266.938,314.5,270.669Z" fill="#252525"/>
    <path id="Path_46" data-name="Path 46" d="M434.476,258.089a40.5,40.5,0,0,1,1.038-6.232c1.462-4.7,4.416-7.674,9.694-7.588a9.862,9.862,0,0,1,9.71,8.257,38.516,38.516,0,0,1,.152,12.3c-.884,5.693-5.869,9.733-10.432,9.428-4.978-.333-9.3-5.3-10.119-11.733A40.032,40.032,0,0,1,434.476,258.089Z" fill="#232323"/>
    <path id="Path_47" data-name="Path 47" d="M165.107,252.393c2.65-6.629,6.4-9.113,11.725-8.107,4.423.836,8.242,6.071,8.361,11.516.046,2.165.073,4.335,0,6.5-.239,6.619-3.992,11.18-9.737,11.917-4.293.552-8.87-2.865-10.165-8.844C164.414,261.349,165.062,257,165.107,252.393Z" fill="#232323"/>
    <path id="Path_48" data-name="Path 48" d="M351.306,244.227c2.157,6.059,3.942,12.283,5.81,18.8H345.933C347.679,256.517,349.306,250.454,351.306,244.227Z" fill="#2c2c2c"/>
    <path id="Path_49" data-name="Path 49" d="M194.153,200.969c1.254-4.932,2.484-9.445,3.713-13.958l.9-.08c1.689,6.258,3.377,12.515,5.147,19.072H193.073C193.461,204.3,193.795,202.846,194.153,200.969Z" fill="#2c2c2c"/>
    <path id="Path_50" data-name="Path 50" d="M331.178,97.681c-.364-1.146-.972-2.046-.762-2.672.82-2.441,1.9-4.8,2.882-7.182.864.8,2.506,1.649,2.458,2.389a94.093,94.093,0,0,1-1.429,9.37A18.071,18.071,0,0,1,331.178,97.681Z" fill="#2c2c2c"/>
  </g>
</svg>
