<svg xmlns="http://www.w3.org/2000/svg" xmlns:xlink="http://www.w3.org/1999/xlink" width="166" height="37" viewBox="0 0 166 37">
  <defs>
    <clipPath id="clip-Web_1920_1">
      <rect width="166" height="37"/>
    </clipPath>
  </defs>
  <g id="Web_1920_1" data-name="Web 1920 – 1" clip-path="url(#clip-Web_1920_1)">
    <g id="logo-no-background" transform="translate(-1.49 35.777)">
      <g id="Group_14" data-name="Group 14" transform="translate(2.49 -34.777)">
        <g id="tight-bounds" transform="translate(0 0)">
          <g id="Group_13" data-name="Group 13">
            <g id="Group_12" data-name="Group 12">
              <g id="Group_11" data-name="Group 11">
                <g id="Group_10" data-name="Group 10">
                  <g id="Group_9" data-name="Group 9">
                    <g id="textblocktransform">
                      <g id="textblock">
                        <g id="Group_4" data-name="Group 4">
                          <g id="Group_3" data-name="Group 3">
                            <g id="Group_2" data-name="Group 2">
                              <g id="Group_1" data-name="Group 1">
                                <path id="text-0" d="M12-35h9.15v4.4H12.3q-5.05,0-5.05,4.1h0a4.429,4.429,0,0,0,2.22,3.72,27.8,27.8,0,0,0,6.03,2.93h0a22.444,22.444,0,0,1,2.9,1.32,13.252,13.252,0,0,1,2.4,1.78,6.767,6.767,0,0,1,1.8,2.82,12.126,12.126,0,0,1,.6,3.98h0a9.355,9.355,0,0,1-1.05,4.47,8.426,8.426,0,0,1-2.7,3.1,13.407,13.407,0,0,1-3.38,1.7,11.623,11.623,0,0,1-3.37.63h0Q12,0,10.7,0H2.9V-4.4h7.65A9.841,9.841,0,0,0,16.1-5.83,4.68,4.68,0,0,0,18.25-10h0a4.641,4.641,0,0,0-.6-2.38,5.492,5.492,0,0,0-1.72-1.77,18.03,18.03,0,0,0-2.3-1.3Q12.45-16,10.8-16.6h0q-.45-.15-.7-.25h0q-7.85-3-7.85-9.8h0q0-4.2,2.7-6.28A11.271,11.271,0,0,1,12-35ZM44.6-5.25h0l3,2.95A12.185,12.185,0,0,1,39.7.5h0a11.612,11.612,0,0,1-8.9-3.58A12.53,12.53,0,0,1,27.45-12h0a12.273,12.273,0,0,1,3.52-8.88A11.708,11.708,0,0,1,39.7-24.5h0a12.185,12.185,0,0,1,7.9,2.8h0l-2.95,3a7.934,7.934,0,0,0-4.95-1.6h0a6.984,6.984,0,0,0-5.48,2.27A8.758,8.758,0,0,0,32.2-12a8.72,8.72,0,0,0,2.02,6.02A6.969,6.969,0,0,0,39.7-3.7h0A7.758,7.758,0,0,0,44.6-5.25ZM71.75-24V0H63.1q-5.55,0-7.95-1.65h0a6.319,6.319,0,0,1-2.73-3.48,20.186,20.186,0,0,1-.57-5.32h0V-24h4.4v13.5q0,.9.05,1.53a7.752,7.752,0,0,0,.35,1.59,4.248,4.248,0,0,0,.85,1.6,4.664,4.664,0,0,0,1.6,1.11,6.221,6.221,0,0,0,2.55.47h5.69V-24Zm6.24,12V-35h4.5v23a8.617,8.617,0,0,0,2.03,6.12A7.219,7.219,0,0,0,90.09-3.7h0a7.775,7.775,0,0,0,5.8-2.13A8.406,8.406,0,0,0,97.99-12h0a8.1,8.1,0,0,0-2.27-6.07,8.187,8.187,0,0,0-5.98-2.23h0a8.58,8.58,0,0,0-5.45,1.8h0V-23a12.229,12.229,0,0,1,5.95-1.5h0a12.013,12.013,0,0,1,8.78,3.42A12.2,12.2,0,0,1,102.49-12h0q0,5.95-3.62,9.22A13.1,13.1,0,0,1,89.74.5h0a11.223,11.223,0,0,1-8.5-3.4A12.621,12.621,0,0,1,77.99-12Zm36.25-12V0h-4.4V-19.8h-4.1l2-4.2Zm-4.6-5h0a2.982,2.982,0,0,1-.65-1.85,2.9,2.9,0,0,1,.65-1.83,2.4,2.4,0,0,1,2-.82,2.4,2.4,0,0,1,2,.82,2.9,2.9,0,0,1,.65,1.83,2.86,2.86,0,0,1-.65,1.82,2.383,2.383,0,0,1-2,.83A2.425,2.425,0,0,1,109.64-29Zm23.05,4.5h0q8.5.35,8.5,7.05h0q0,8.35-10.95,8.35h-2.05v-3.85h2.4q3.35,0,4.65-1.03a4.093,4.093,0,0,0,1.3-3.42h0a2.629,2.629,0,0,0-1.15-2.33,5.2,5.2,0,0,0-2.95-.77h0a6.8,6.8,0,0,0-5.58,2.5,9.247,9.247,0,0,0-2.02,6h0a8.387,8.387,0,0,0,2.17,6,7.469,7.469,0,0,0,5.68,2.3h0a8.165,8.165,0,0,0,5.15-1.55h0l3,2.95A12.536,12.536,0,0,1,132.69.5h0a12.4,12.4,0,0,1-9.1-3.35,11.614,11.614,0,0,1-3.4-8.65h0a13.569,13.569,0,0,1,3.35-9.55Q126.89-24.7,132.69-24.5Zm25.25,0h0q8.5.35,8.5,7.05h0q0,8.35-10.95,8.35h-2.05v-3.85h2.4q3.35,0,4.65-1.03a4.109,4.109,0,0,0,1.29-3.42h0a2.629,2.629,0,0,0-1.15-2.33,5.152,5.152,0,0,0-2.94-.77h0a6.78,6.78,0,0,0-5.58,2.5,9.247,9.247,0,0,0-2.02,6h0a8.387,8.387,0,0,0,2.17,6,7.469,7.469,0,0,0,5.68,2.3h0a8.165,8.165,0,0,0,5.15-1.55h0l3,2.95A12.562,12.562,0,0,1,157.94.5h0a12.4,12.4,0,0,1-9.1-3.35,11.614,11.614,0,0,1-3.4-8.65h0a13.594,13.594,0,0,1,3.34-9.55Q152.13-24.7,157.94-24.5Z" transform="translate(-2.25 35)" fill="#f6f6f6"/>
                              </g>
                            </g>
                          </g>
                        </g>
                        <g id="Group_8" data-name="Group 8" transform="translate(0.45 1161.687)">
                          <g id="Group_7" data-name="Group 7">
                            <g id="Group_6" data-name="Group 6">
                              <g id="Group_5" data-name="Group 5">
                                <path id="text-1" d="M22.564-2.75h0q6.556,0,9.942-1.53Q35.872-5.8,35.872-8.2h0q0-2.05-2.6-3.4a26.944,26.944,0,0,0-8.161-2.15h0L16.6-15.05a43.575,43.575,0,0,1-7.143-1.68,12.373,12.373,0,0,1-4.638-2.55,4.74,4.74,0,0,1-1.624-3.57h0q0-3.85,5.48-6.03t14.58-2.17h0a70.339,70.339,0,0,1,9.453.57A32.08,32.08,0,0,1,39.258-29q2.388.9,2.388,1.9h0a1.472,1.472,0,0,1-.685,1.17,5.082,5.082,0,0,1-1.761.83h0a33.947,33.947,0,0,0-6.6-1.75,51.242,51.242,0,0,0-9.061-.75h0a25.905,25.905,0,0,0-9,1.27q-3.327,1.28-3.327,3.48h0q0,1.75,2.407,2.85a31.032,31.032,0,0,0,7.77,1.9h0l5.969.9A43.856,43.856,0,0,1,39.551-14q4.443,2.1,4.443,5.8h0q0,3.95-5.617,6.4Q32.741.65,22.564.65h0A69.706,69.706,0,0,1,12.153-.03a30.806,30.806,0,0,1-6.948-1.7Q2.7-2.75,2.7-3.75h0A1.672,1.672,0,0,1,3.737-5.18,7.677,7.677,0,0,1,6.125-6h0a35.39,35.39,0,0,0,6.36,2.17A40.257,40.257,0,0,0,22.564-2.75Zm72.607-11.9v4.7H87.343v-4.6q0-3-3.288-4.45A21.013,21.013,0,0,0,75.6-20.45h0a31.911,31.911,0,0,0-7.1.75,27.963,27.963,0,0,0-5.519,1.8h0L61.51-21.15a54.518,54.518,0,0,1,6.2-1.73,41.207,41.207,0,0,1,8.963-.87h0q8.122,0,13.308,2.25t5.186,6.85ZM56.128-1.55V-13.2h7.828V-.1q-.489.1-1.468.23a17.766,17.766,0,0,1-2.153.12h0A8.821,8.821,0,0,1,57.2-.18a1.435,1.435,0,0,1-1.076-1.37Zm31.215,0v-11.6l7.828.05v13q-.489.1-1.527.23A17.873,17.873,0,0,1,91.55.25h0a8.844,8.844,0,0,1-3.19-.43,1.424,1.424,0,0,1-1.018-1.37ZM63.956-30.95v19.7H56.128V-32.4q.489-.1,1.507-.23a19.273,19.273,0,0,1,2.211-.12h0a8.5,8.5,0,0,1,3.073.42,1.444,1.444,0,0,1,1.037,1.38ZM125.995.7h0q-9.2,0-14.247-1.85-5.03-1.85-5.03-5.35h0q0-3.25,4.247-4.98a37.165,37.165,0,0,1,11.8-2.07h0l13.9-.7v-1.4q0-2.5-2.936-3.65a22.259,22.259,0,0,0-7.926-1.15h0a47.746,47.746,0,0,0-7.691.6q-3.66.6-6.5,1.35h0a7.553,7.553,0,0,1-1.429-.83,1.276,1.276,0,0,1-.626-.97h0q0-1.3,2.838-2h0a41.854,41.854,0,0,1,6.106-1.08,70.143,70.143,0,0,1,7.4-.37h0q8.513,0,13.5,1.95t4.991,6.15h0V-3.8a1.889,1.889,0,0,1-.842,1.67,8.869,8.869,0,0,1-2.485,1.08h0A51.065,51.065,0,0,1,134.8.15,63.724,63.724,0,0,1,125.995.7Zm0-3.3h0a44.167,44.167,0,0,0,6.791-.43,25.552,25.552,0,0,0,3.875-.82h0V-11.1l-12.134.65a24.944,24.944,0,0,0-7.535,1.15q-2.446.95-2.446,2.75h0q0,1.85,2.877,2.9A26.574,26.574,0,0,0,125.995-2.6Zm40.492-16.2h0v7.9h-7.828v-7.6a2.231,2.231,0,0,1,.842-1.83,9.181,9.181,0,0,1,2.779-1.32h0a41.3,41.3,0,0,1,6.948-1.48,70.547,70.547,0,0,1,9.785-.62h0q7.828,0,7.828,2h0a1.572,1.572,0,0,1-.294.92,2.534,2.534,0,0,1-.783.73h0q-.979-.1-2.544-.2t-3.131-.1h0a58.963,58.963,0,0,0-7.926.47A41.937,41.937,0,0,0,166.486-18.8ZM158.658-1.55V-13.2l7.828.6V-.1Q166,0,165.018.13a17.766,17.766,0,0,1-2.153.12h0a8.821,8.821,0,0,1-3.131-.43,1.435,1.435,0,0,1-1.076-1.37Zm73.1-9.8L198.876-9l-.391-3.15,29.552-2.05q-.391-2.75-3.718-4.53t-9.2-1.77h0a20.278,20.278,0,0,0-10.02,2.22,6.981,6.981,0,0,0-3.973,6.38h0v1.1q.685,4,5.147,6.07,4.442,2.08,12.173,2.08h0a36.232,36.232,0,0,0,7.437-.7,31.693,31.693,0,0,0,5.284-1.5h0a6.188,6.188,0,0,1,1.722.82,1.362,1.362,0,0,1,.626,1.08h0q0,.95-2.094,1.77A25.7,25.7,0,0,1,225.844.15a55.147,55.147,0,0,1-7.789.5h0A53.563,53.563,0,0,1,205-.75a19.136,19.136,0,0,1-8.513-4.18,8.871,8.871,0,0,1-2.994-6.77h0a8.409,8.409,0,0,1,1.624-5.08,12.974,12.974,0,0,1,4.5-3.77,25.316,25.316,0,0,1,6.889-2.38,43.5,43.5,0,0,1,8.709-.82h0a38.521,38.521,0,0,1,10.529,1.3,17.991,17.991,0,0,1,7.143,3.63,6.989,6.989,0,0,1,2.583,5.32h0a1.616,1.616,0,0,1-.979,1.57,7.3,7.3,0,0,1-2.74.58Zm63.115-5.85h0q-1.761,3.15-3.777,6.3T287.237-5q-1.879,2.75-3.425,4.75h0a11.573,11.573,0,0,1-1.761.4,18.289,18.289,0,0,1-2.642.15h0a14.389,14.389,0,0,1-2.9-.27,3.113,3.113,0,0,1-1.8-.88h0a19.133,19.133,0,0,1-2.211-2.9q-1.213-1.9-2.544-4.35-1.311-2.45-2.7-5.08-1.35-2.62-2.486-5.07t-1.918-4.35h0a10.727,10.727,0,0,1,1.722-.65,8.893,8.893,0,0,1,2.485-.3h0a5.861,5.861,0,0,1,2.8.52,2.841,2.841,0,0,1,1.311,1.68h0q.9,2.1,2.016,4.75,1.135,2.65,2.348,5.25,1.233,2.6,2.251,4.67l1.507,3.08h.411q.763-1.2,2.446-3.93,1.664-2.72,3.953-6.22,2.309-3.5,4.638-7.1h0a10.19,10.19,0,0,1,1.879-.38,20.744,20.744,0,0,1,2.329-.12h0a11.233,11.233,0,0,1,2.936.32,2.623,2.623,0,0,1,1.585.98h0q2.329,3.45,4.4,6.77,2.035,3.33,3.621,5.9,1.566,2.58,2.251,3.83h.489q2.251-4.45,4.893-9.55a70.626,70.626,0,0,0,4.286-10h0a10.935,10.935,0,0,1,3.347-.45h0a7.137,7.137,0,0,1,2.642.4,1.328,1.328,0,0,1,.979,1.25h0a7,7,0,0,1-.646,2.1q-.626,1.55-1.722,3.65-1.057,2.1-2.388,4.47-1.311,2.38-2.7,4.6-1.35,2.23-2.583,4.03a26.188,26.188,0,0,1-2.114,2.8h0a8.047,8.047,0,0,1-1.6.38,17.335,17.335,0,0,1-2.583.17h0q-4.012,0-4.7-.95h0q-1.39-1.8-3.131-4.48-1.761-2.67-3.64-5.8Q296.729-14.05,294.869-17.2Zm42.155-13.2h0q0-1.05,1.468-1.78a8.177,8.177,0,0,1,3.621-.72h0a7.8,7.8,0,0,1,3.621.72q1.37.73,1.37,1.78h0q0,1.05-1.37,1.77a7.707,7.707,0,0,1-3.621.73h0a8.082,8.082,0,0,1-3.621-.73Q337.024-29.35,337.024-30.4ZM338.2-1.55V-13.2h7.828V-.1q-.489.1-1.468.23a17.766,17.766,0,0,1-2.153.12h0a8.821,8.821,0,0,1-3.131-.43A1.434,1.434,0,0,1,338.2-1.55Zm7.828-19.95v10.25H338.2V-23q.489-.1,1.526-.23a18.762,18.762,0,0,1,2.192-.12h0a8.67,8.67,0,0,1,3.092.42,1.472,1.472,0,0,1,1.018,1.43ZM393.192-6.15h0q0,3.2-4.6,5T375.285.65h0A51.208,51.208,0,0,1,363.151-.53q-4.7-1.17-4.7-2.57h0a1.625,1.625,0,0,1,.646-1.18A4.639,4.639,0,0,1,361-5.2h0a53.2,53.2,0,0,0,6.165,1.75,36.4,36.4,0,0,0,8.024.8h0q10.177,0,10.177-3.5h0a2.728,2.728,0,0,0-1.7-2.38,14.822,14.822,0,0,0-5.049-1.32h0l-8.122-1.1q-5.969-.75-8.709-2.33t-2.74-3.92h0q0-2.65,4.208-4.6t12.819-1.95h0a59.821,59.821,0,0,1,8.024.47,23.75,23.75,0,0,1,5.343,1.25q1.9.78,1.9,1.68h0a1.452,1.452,0,0,1-.626,1.15,4.422,4.422,0,0,1-1.722.75h0q-1.174-.4-2.975-.88a37.091,37.091,0,0,0-4.266-.8,41.67,41.67,0,0,0-5.382-.32h0a23.272,23.272,0,0,0-6.948.85q-2.642.85-2.642,2.4h0q0,1.1,1.507,1.92a14.312,14.312,0,0,0,4.854,1.23h0l6.752.85q6.654.8,9.981,2.52T393.192-6.15Zm42.664,2.2h0v-16.8l7.828-.05v17a1.779,1.779,0,0,1-.842,1.53,9.931,9.931,0,0,1-2.583,1.12h0A37.534,37.534,0,0,1,434.682.08a53.984,53.984,0,0,1-8.318.57h0A55.281,55.281,0,0,1,413.937-.6a19,19,0,0,1-8.415-3.93,8.789,8.789,0,0,1-3.033-6.92h0a9.074,9.074,0,0,1,2.975-7.05,18.645,18.645,0,0,1,8.083-3.98A46.029,46.029,0,0,1,424.7-23.75h0a45.66,45.66,0,0,1,7.241.55,25.363,25.363,0,0,1,5.382,1.35h0v3.7a21.112,21.112,0,0,0-4.854-1.63,32.1,32.1,0,0,0-6.987-.67h0a30.152,30.152,0,0,0-7.437.87,11.932,11.932,0,0,0-5.48,2.88,7.123,7.123,0,0,0-2.055,5.35h0a6.9,6.9,0,0,0,4.306,6.62q4.306,2.08,11.449,2.08h0a33.94,33.94,0,0,0,5.617-.38A29.992,29.992,0,0,0,435.856-3.95Zm7.828-27V-19.8l-7.828.05V-32.4q.489-.1,1.507-.23a18.378,18.378,0,0,1,2.114-.12h0a8.866,8.866,0,0,1,3.17.42,1.444,1.444,0,0,1,1.037,1.38Zm56.833,19.4h0A8.878,8.878,0,0,1,497.8-5.1a18.022,18.022,0,0,1-7.75,4.25A40.862,40.862,0,0,1,478.3.65h0a41.526,41.526,0,0,1-11.781-1.5,18.185,18.185,0,0,1-7.789-4.25,8.847,8.847,0,0,1-2.74-6.45h0a8.748,8.748,0,0,1,2.8-6.48,18.7,18.7,0,0,1,7.828-4.22,41,41,0,0,1,11.684-1.5h0a40.674,40.674,0,0,1,11.664,1.5,18.7,18.7,0,0,1,7.77,4.22A8.777,8.777,0,0,1,500.517-11.55ZM478.3-20.45h0q-6.536,0-10.412,2.38a7.314,7.314,0,0,0-3.855,6.52h0A7.342,7.342,0,0,0,467.8-5q3.777,2.35,10.509,2.35h0q6.674,0,10.431-2.38a7.347,7.347,0,0,0,3.758-6.52h0a7.347,7.347,0,0,0-3.758-6.52Q484.978-20.45,478.3-20.45ZM549.15-16h0v5.75h-7.828V-15.7q0-2.45-2.779-3.6a19.788,19.788,0,0,0-7.4-1.15h0a33.783,33.783,0,0,0-5.871.5,34.411,34.411,0,0,0-4.795,1.15h0v8.55h-7.828V-18.6a2.137,2.137,0,0,1,.842-1.7,8.686,8.686,0,0,1,2.877-1.35h0a44.851,44.851,0,0,1,6.713-1.48,53.867,53.867,0,0,1,8.161-.62h0a44.883,44.883,0,0,1,8.807.77,14.931,14.931,0,0,1,5.676,2.13h0q.587.3.978.55a4.488,4.488,0,0,1,.783.65h0a5.185,5.185,0,0,1,1.174,1.55A4.519,4.519,0,0,1,549.15-16Zm28.671.1h0v5.65h-7.828V-15.7q0-2.45-2.74-3.6a19.318,19.318,0,0,0-7.339-1.15h0a29.7,29.7,0,0,0-6.6.72,23.243,23.243,0,0,0-5.734,2.08h0l-3.131-2.9a29.438,29.438,0,0,1,6.654-2.25,41.917,41.917,0,0,1,9.394-.95h0a43.219,43.219,0,0,1,9.159.85,14.335,14.335,0,0,1,6.008,2.6A5.441,5.441,0,0,1,577.821-15.9ZM512.651-1.55V-12.9h7.828V-.1q-.489.1-1.468.23a17.765,17.765,0,0,1-2.153.12h0a8.821,8.821,0,0,1-3.131-.43,1.435,1.435,0,0,1-1.076-1.37Zm28.671,0V-12.9h7.828V-.1q-.489.1-1.507.23a18.377,18.377,0,0,1-2.114.12h0a8.675,8.675,0,0,1-3.17-.43,1.427,1.427,0,0,1-1.037-1.37Zm28.671,0V-12.9h7.828V-.1q-.489.1-1.507.23A18.379,18.379,0,0,1,574.2.25h0a8.676,8.676,0,0,1-3.17-.43,1.427,1.427,0,0,1-1.037-1.37ZM628.215.7h0q-9.2,0-14.247-1.85-5.03-1.85-5.03-5.35h0q0-3.25,4.247-4.98a37.165,37.165,0,0,1,11.8-2.07h0l13.9-.7v-1.4q0-2.5-2.936-3.65a22.258,22.258,0,0,0-7.926-1.15h0a47.745,47.745,0,0,0-7.691.6q-3.66.6-6.5,1.35h0a7.556,7.556,0,0,1-1.429-.83,1.276,1.276,0,0,1-.626-.97h0q0-1.3,2.838-2h0a41.852,41.852,0,0,1,6.106-1.08,70.142,70.142,0,0,1,7.4-.37h0q8.513,0,13.5,1.95t4.99,6.15h0V-3.8a1.889,1.889,0,0,1-.841,1.67,8.869,8.869,0,0,1-2.485,1.08h0a51.064,51.064,0,0,1-6.263,1.2A63.724,63.724,0,0,1,628.215.7Zm0-3.3h0a44.166,44.166,0,0,0,6.791-.43,25.549,25.549,0,0,0,3.875-.82h0V-11.1l-12.134.65a24.945,24.945,0,0,0-7.535,1.15q-2.446.95-2.446,2.75h0q0,1.85,2.877,2.9A26.574,26.574,0,0,0,628.215-2.6Zm71.8-12.65h0v5.1h-7.828v-4.9q0-2.8-3.073-4.1a21.664,21.664,0,0,0-8.278-1.3h0a43.083,43.083,0,0,0-6.948.5,42.743,42.743,0,0,0-5.186,1.15h0v8.65h-7.828V-18.6a2.129,2.129,0,0,1,.842-1.73,9.494,9.494,0,0,1,2.877-1.32h0a56.786,56.786,0,0,1,6.771-1.43,60.373,60.373,0,0,1,9.472-.67h0q8.9,0,14.052,2.07Q700.02-19.6,700.02-15.25ZM660.879-1.55V-12.9h7.828V-.1q-.489.1-1.468.23a17.767,17.767,0,0,1-2.153.12h0a8.92,8.92,0,0,1-3.131-.43,1.435,1.435,0,0,1-1.076-1.37Zm31.313,0V-12.9h7.828V-.1q-.489.1-1.507.23A18.376,18.376,0,0,1,696.4.25h0a8.675,8.675,0,0,1-3.17-.43,1.427,1.427,0,0,1-1.037-1.37Zm53.33-2.4h0v-16.8l7.828-.05v17a1.789,1.789,0,0,1-.822,1.53,10.33,10.33,0,0,1-2.6,1.12h0A37.532,37.532,0,0,1,744.347.08a53.982,53.982,0,0,1-8.318.57h0A55.282,55.282,0,0,1,723.6-.6a19,19,0,0,1-8.415-3.93,8.789,8.789,0,0,1-3.033-6.92h0a9.046,9.046,0,0,1,2.994-7.05,18.49,18.49,0,0,1,8.063-3.98,46.029,46.029,0,0,1,11.155-1.27h0a45.66,45.66,0,0,1,7.241.55,25.365,25.365,0,0,1,5.382,1.35h0v3.7a21.139,21.139,0,0,0-4.834-1.63,32.375,32.375,0,0,0-7.006-.67h0a30.151,30.151,0,0,0-7.437.87,11.932,11.932,0,0,0-5.48,2.88,7.124,7.124,0,0,0-2.055,5.35h0a6.9,6.9,0,0,0,4.306,6.62q4.306,2.08,11.449,2.08h0a34.307,34.307,0,0,0,5.636-.38A30.153,30.153,0,0,0,745.521-3.95Zm7.828-27V-19.8l-7.828.05V-32.4q.489-.1,1.527-.23a17.872,17.872,0,0,1,2.094-.12h0a9.038,9.038,0,0,1,3.19.42,1.441,1.441,0,0,1,1.018,1.38Zm65.659,11.8-19.179,8.6-4.893-1.95,22.31-11.05a10.891,10.891,0,0,1,3.66.57q1.331.53,1.331,1.38h0a1.533,1.533,0,0,1-.841,1.25,14.378,14.378,0,0,1-2.388,1.2Zm-3.425,18-20.843-10.7,5.48-1.65L825.076-2.1a2.491,2.491,0,0,1-1.331,1.75A5.887,5.887,0,0,1,820.77.3h0a8.711,8.711,0,0,1-2.7-.4,17.558,17.558,0,0,1-2.485-1.05Zm-27.595-.4V-13.4l7.828.6V-.1q-.489.1-1.468.23A17.767,17.767,0,0,1,792.2.25h0a8.821,8.821,0,0,1-3.131-.43,1.435,1.435,0,0,1-1.076-1.37Zm7.828-29.4v20.1l-7.828-.6V-32.4q.489-.1,1.507-.23a19.275,19.275,0,0,1,2.212-.12h0a8.5,8.5,0,0,1,3.073.42,1.444,1.444,0,0,1,1.037,1.38Zm78.772,15.7h0v5.1h-7.828v-4.9q0-2.8-3.092-4.1a21.6,21.6,0,0,0-8.259-1.3h0a43.086,43.086,0,0,0-6.948.5,41.645,41.645,0,0,0-5.186,1.15h0v8.65h-7.828V-18.6a2.148,2.148,0,0,1,.822-1.73,9.5,9.5,0,0,1,2.9-1.32h0a56.911,56.911,0,0,1,6.752-1.43,60.753,60.753,0,0,1,9.492-.67h0q8.9,0,14.032,2.07Q874.589-19.6,874.589-15.25ZM835.448-1.55V-12.9h7.828V-.1q-.489.1-1.468.23a17.765,17.765,0,0,1-2.153.12h0a8.821,8.821,0,0,1-3.131-.43,1.435,1.435,0,0,1-1.076-1.37Zm31.313,0V-12.9h7.828V-.1q-.489.1-1.526.23a17.874,17.874,0,0,1-2.094.12h0a8.845,8.845,0,0,1-3.19-.43,1.424,1.424,0,0,1-1.018-1.37Zm64.466-10h0a8.847,8.847,0,0,1-2.74,6.45,18.019,18.019,0,0,1-7.73,4.25A40.986,40.986,0,0,1,909.014.65h0a41.4,41.4,0,0,1-11.782-1.5,18.029,18.029,0,0,1-7.789-4.25,8.847,8.847,0,0,1-2.74-6.45h0a8.748,8.748,0,0,1,2.8-6.48,18.538,18.538,0,0,1,7.828-4.22,41.005,41.005,0,0,1,11.684-1.5h0a40.594,40.594,0,0,1,11.644,1.5,18.7,18.7,0,0,1,7.789,4.22A8.777,8.777,0,0,1,931.227-11.55Zm-22.213-8.9h0q-6.556,0-10.411,2.38a7.308,7.308,0,0,0-3.875,6.52h0A7.335,7.335,0,0,0,898.5-5q3.758,2.35,10.509,2.35h0q6.654,0,10.431-2.38a7.347,7.347,0,0,0,3.758-6.52h0a7.347,7.347,0,0,0-3.758-6.52Q915.668-20.45,909.014-20.45Zm62.822,3.25h0q-1.761,3.15-3.757,6.3Q966.062-7.75,964.2-5T960.778-.25h0a11.576,11.576,0,0,1-1.761.4,18.29,18.29,0,0,1-2.642.15h0A14.283,14.283,0,0,1,953.5.03a3.135,3.135,0,0,1-1.82-.88h0a18.373,18.373,0,0,1-2.192-2.9q-1.233-1.9-2.544-4.35-1.331-2.45-2.7-5.08t-2.485-5.07q-1.135-2.45-1.918-4.35h0a9.851,9.851,0,0,1,1.722-.65,8.894,8.894,0,0,1,2.486-.3h0a5.932,5.932,0,0,1,2.8.52,2.941,2.941,0,0,1,1.311,1.68h0q.881,2.1,2.016,4.75,1.116,2.65,2.349,5.25,1.213,2.6,2.251,4.67l1.507,3.08h.391q.783-1.2,2.446-3.93t3.973-6.22q2.29-3.5,4.638-7.1h0a10.183,10.183,0,0,1,1.859-.38,21.28,21.28,0,0,1,2.349-.12h0a11.371,11.371,0,0,1,2.936.32,2.529,2.529,0,0,1,1.566.98h0q2.349,3.45,4.4,6.77t3.621,5.9q1.566,2.58,2.251,3.83h.489q2.251-4.45,4.893-9.55a72.371,72.371,0,0,0,4.306-10h0a10.743,10.743,0,0,1,3.327-.45h0a7.136,7.136,0,0,1,2.642.4,1.328,1.328,0,0,1,.979,1.25h0a7.169,7.169,0,0,1-.626,2.1q-.646,1.55-1.722,3.65t-2.388,4.47q-1.331,2.38-2.7,4.6t-2.583,4.03a30.208,30.208,0,0,1-2.114,2.8h0a8.047,8.047,0,0,1-1.6.38A17.74,17.74,0,0,1,987,.3h0q-4.012,0-4.7-.95h0q-1.37-1.8-3.131-4.48t-3.621-5.8Q973.695-14.05,971.836-17.2Zm43.642,15.65V-13.2l7.828.6V-.1q-.489.1-1.468.23a17.766,17.766,0,0,1-2.153.12h0a8.82,8.82,0,0,1-3.131-.43,1.435,1.435,0,0,1-1.076-1.37Zm7.828-29.4V-10.7l-7.828-.55V-32.4q.489-.1,1.507-.23a18.381,18.381,0,0,1,2.114-.12h0a8.866,8.866,0,0,1,3.171.42,1.444,1.444,0,0,1,1.037,1.38Zm51.157,19.6L1041.585-9l-.391-3.15,29.552-2.05q-.391-2.75-3.718-4.53t-9.2-1.77h0a20.278,20.278,0,0,0-10.02,2.22,6.981,6.981,0,0,0-3.973,6.38h0v1.1q.685,4,5.147,6.07,4.443,2.08,12.173,2.08h0a36.232,36.232,0,0,0,7.437-.7,31.7,31.7,0,0,0,5.284-1.5h0a6.188,6.188,0,0,1,1.722.82,1.362,1.362,0,0,1,.626,1.08h0q0,.95-2.094,1.77a25.7,25.7,0,0,1-5.577,1.33,55.152,55.152,0,0,1-7.789.5h0a53.564,53.564,0,0,1-13.054-1.4,19.137,19.137,0,0,1-8.513-4.18,8.871,8.871,0,0,1-2.994-6.77h0a8.409,8.409,0,0,1,1.624-5.08,12.975,12.975,0,0,1,4.5-3.77,25.317,25.317,0,0,1,6.889-2.38,43.505,43.505,0,0,1,8.709-.82h0a38.521,38.521,0,0,1,10.529,1.3,17.99,17.99,0,0,1,7.143,3.63,6.989,6.989,0,0,1,2.583,5.32h0a1.616,1.616,0,0,1-.979,1.57,7.3,7.3,0,0,1-2.74.58Zm45.893,7.4h0v-16.8l7.828-.05v17a1.789,1.789,0,0,1-.822,1.53,10.332,10.332,0,0,1-2.6,1.12h0a37.534,37.534,0,0,1-5.578,1.23,53.983,53.983,0,0,1-8.318.57h0A55.28,55.28,0,0,1,1098.438-.6a19,19,0,0,1-8.416-3.93,8.79,8.79,0,0,1-3.033-6.92h0a9.046,9.046,0,0,1,2.994-7.05,18.49,18.49,0,0,1,8.063-3.98,46.029,46.029,0,0,1,11.155-1.27h0a45.662,45.662,0,0,1,7.241.55,25.364,25.364,0,0,1,5.382,1.35h0v3.7a21.136,21.136,0,0,0-4.834-1.63,32.374,32.374,0,0,0-7.006-.67h0a30.151,30.151,0,0,0-7.437.87,11.932,11.932,0,0,0-5.48,2.88,7.123,7.123,0,0,0-2.055,5.35h0a6.9,6.9,0,0,0,4.305,6.62q4.306,2.08,11.449,2.08h0a34.308,34.308,0,0,0,5.636-.38A30.154,30.154,0,0,0,1120.357-3.95Zm7.828-27V-19.8l-7.828.05V-32.4q.489-.1,1.526-.23a17.876,17.876,0,0,1,2.094-.12h0a9.039,9.039,0,0,1,3.19.42,1.442,1.442,0,0,1,1.018,1.38ZM1161.847-.7h0a45.623,45.623,0,0,1-10.47-1.13,17.72,17.72,0,0,1-7.73-3.67,8.5,8.5,0,0,1-2.936-6.75h0a8.139,8.139,0,0,1,2.877-6.35,19.048,19.048,0,0,1,7.985-3.85,47.217,47.217,0,0,1,11.645-1.3h0a55.26,55.26,0,0,1,8.259.57,38.989,38.989,0,0,1,6.321,1.43h0a10.157,10.157,0,0,1,2.388,1.12,1.821,1.821,0,0,1,.939,1.53h0V-3.65H1173.3v-15.4a29.423,29.423,0,0,0-4.169-.98,36,36,0,0,0-5.91-.42h0q-6.556,0-10.568,2.05t-4.012,6.1h0a6.561,6.561,0,0,0,4.051,6.4,23.668,23.668,0,0,0,10.04,1.9h0a26.2,26.2,0,0,0,6.947-.75,19.032,19.032,0,0,0,4.208-1.65h0l.391,3.55a18.155,18.155,0,0,1-4.658,1.47A37.737,37.737,0,0,1,1161.847-.7ZM1173.3.75h0V-4.5h7.828V1a6.212,6.212,0,0,1-2.8,5.3,18.941,18.941,0,0,1-7.632,2.9,59.876,59.876,0,0,1-10.9.9h0a55.456,55.456,0,0,1-8.415-.55q-3.523-.55-4.795-.9h0q-2.936-.85-2.936-2.15h0a1.414,1.414,0,0,1,.626-1.17,4.61,4.61,0,0,1,1.624-.73h0a32.991,32.991,0,0,0,5.812,1.48,46.284,46.284,0,0,0,8.083.67h0q6.556,0,10.02-1.45Q1173.3,3.85,1173.3.75Zm58.027-12.1L1198.444-9l-.391-3.15L1227.6-14.2q-.391-2.75-3.719-4.53t-9.2-1.77h0a20.393,20.393,0,0,0-10.04,2.22,6.985,6.985,0,0,0-3.953,6.38h0v1.1q.685,4,5.127,6.07,4.462,2.08,12.192,2.08h0a36.232,36.232,0,0,0,7.437-.7,31.691,31.691,0,0,0,5.284-1.5h0a5.87,5.87,0,0,1,1.7.82,1.353,1.353,0,0,1,.646,1.08h0q0,.95-2.114,1.77a25.321,25.321,0,0,1-5.578,1.33,54.727,54.727,0,0,1-7.77.5h0a53.806,53.806,0,0,1-13.073-1.4,19.277,19.277,0,0,1-8.513-4.18,8.9,8.9,0,0,1-2.975-6.77h0a8.478,8.478,0,0,1,1.6-5.08,13.22,13.22,0,0,1,4.5-3.77,25.62,25.62,0,0,1,6.909-2.38,43.5,43.5,0,0,1,8.709-.82h0a38.305,38.305,0,0,1,10.509,1.3,17.812,17.812,0,0,1,7.143,3.63,6.968,6.968,0,0,1,2.6,5.32h0a1.616,1.616,0,0,1-.979,1.57,7.3,7.3,0,0,1-2.74.58Z" transform="translate(-2.7 32.9)" fill="#f6f6f6"/>
                              </g>
                            </g>
                          </g>
                        </g>
                      </g>
                    </g>
                  </g>
                </g>
              </g>
            </g>
          </g>
        </g>
      </g>
    </g>
  </g>
</svg>
