<svg xmlns="http://www.w3.org/2000/svg" xmlns:xlink="http://www.w3.org/1999/xlink" width="750" height="750" viewBox="0 0 750 750">
  <defs>
    <clipPath id="clip-path">
      <rect id="Rectangle_7" data-name="Rectangle 7" width="750" height="750"/>
    </clipPath>
  </defs>
  <g id="scubiee" clip-path="url(#clip-path)">
    <g id="a_simple_geometric_design_representing_the_letter_S_using_only_black_color" data-name="a simple, geometric design representing the letter S using only black color" transform="translate(5.437 -108.478)">
      <rect id="Rectangle_6" data-name="Rectangle 6" width="750" height="750" rx="257" transform="translate(-5.437 108.478)" fill="#0a0a0a"/>
      <path id="Path_18" data-name="Path 18" d="M471.385,845.2c-21.874-4.787-41.78-13.671-61.655-22.686Q343.754,792.589,277.714,762.8c-3.409-1.545-7.161-2.611-10.272-5.76,8.172-8.765,16.177-17.423,24.262-26.007q30.837-32.745,61.685-65.478c1.68-1.792,3.023-2.029,5.168-1.057q47.09,21.342,94.232,42.565c26.877,12.088,53.836,24,80.668,36.184,7.837,3.56,15.689,2.239,23.529,1,35.007-5.525,87.541-41.823,109.073-70.541,25.262-33.694,26.655-78.273,3.986-113.845-13-20.4-31.25-34.139-52.936-44.138-47.631-21.965-95.122-44.233-142.653-66.416-2.513-1.173-5.32-2.018-7.315-5.051,8.247-9,16.47-18.113,24.841-27.086,12.386-13.276,24.994-26.348,37.251-39.742,3.4-3.709,5.972-4.566,10.934-2.263,43.495,20.185,87.144,40.041,130.79,59.9C715.7,455.425,749.679,487,770.9,531.57a180.878,180.878,0,0,1,16.488,60.335c4.914,49.678-8.83,94.265-37.544,134.411-22.22,31.066-51.451,54.172-85.061,72-27.627,14.651-80.2,44.914-111.1,49.36C526.292,851.612,498.943,851.2,471.385,845.2Z" transform="translate(-148.606 -43)" fill="#fff"/>
      <path id="Path_19" data-name="Path 19" d="M498.709,474.269c38.776,16.455,131.254,60.465,140.2,66.786a5.489,5.489,0,0,1-.757,1.615c-8.97,9.386-18.018,18.7-26.925,28.143-1.857,1.971-3.3,2.544-5.981,1.289q-76.4-35.808-152.9-71.419c-6.634-3.1-13.232-6.272-19.832-9.44a12.382,12.382,0,0,1-4.969-3.546c3.189-5.859,8.261-10.01,12.517-14.811,4.637-5.231,9.639-10.14,14.247-15.395,1.927-2.2,3.589-2.3,6.065-1.126C473.006,462.35,485.7,468.2,498.709,474.269Z" transform="translate(-168.091 -34)" fill="#fff"/>
      <path id="Path_27" data-name="Path 27" d="M203.943,471.3c-21.874-4.787-41.78-13.671-61.655-22.686Q76.312,418.694,10.272,388.908C6.863,387.363,3.111,386.3,0,383.148c8.172-8.765,16.177-17.423,24.262-26.007Q55.1,324.4,85.947,291.663c1.68-1.792,3.023-2.029,5.168-1.057q47.09,21.342,94.232,42.565c26.877,12.088,53.836,24,80.668,36.184,7.837,3.56,15.689,2.239,23.529,1,35.007-5.525,87.541-41.823,109.073-70.541,25.262-33.694,26.655-78.273,3.986-113.845-13-20.4-31.25-34.139-52.936-44.138C302.036,119.867,254.545,97.6,207.014,75.416c-2.513-1.173-5.32-2.018-7.315-5.051,8.247-9,16.47-18.113,24.841-27.086C236.926,30,249.534,16.931,261.791,3.537c3.4-3.709,5.972-4.566,10.934-2.263,43.495,20.185,87.144,40.041,130.79,59.9,44.744,20.357,78.722,51.934,99.939,96.5a180.878,180.878,0,0,1,16.488,60.335c4.914,49.678-8.83,94.265-37.544,134.411-22.22,31.066-51.451,54.172-85.061,72-27.627,14.651-80.2,44.914-111.1,49.36C258.85,477.717,231.5,477.3,203.943,471.3Z" transform="translate(620.291 636.061) rotate(180)" fill="#fff"/>
    </g>
  </g>
</svg>
